<?xml version="1.0" encoding="utf-8"?>
<!-- Generator: Adobe Illustrator 21.0.0, SVG Export Plug-In . SVG Version: 6.00 Build 0)  -->
<svg version="1.1" id="Layer_3" xmlns="http://www.w3.org/2000/svg" xmlns:xlink="http://www.w3.org/1999/xlink" x="0px" y="0px"
	 viewBox="0 0 80.6 72.5" style="enable-background:new 0 0 80.6 72.5;" xml:space="preserve">
<style type="text/css">
	.st0{fill:url(#SVGID_1_);}
	.st1{fill:url(#SVGID_2_);}
	.st2{fill:#781A18;}
	.st3{fill:url(#SVGID_3_);}
	.st4{fill:url(#SVGID_4_);}
	.st5{fill:url(#SVGID_5_);}
	.st6{clip-path:url(#SVGID_7_);}
	.st7{fill:#C11B16;}
	.st8{clip-path:url(#SVGID_9_);}
	.st9{fill:#F8311D;}
	.st10{fill:#0E1428;}
	.st11{fill:url(#SVGID_10_);}
</style>
<title>icons_features</title>
<g>
	
		<linearGradient id="SVGID_1_" gradientUnits="userSpaceOnUse" x1="42.2895" y1="51.471" x2="57.5595" y2="59.421" gradientTransform="matrix(1 0 0 -1 0 74)">
		<stop  offset="0.13" style="stop-color:#051335"/>
		<stop  offset="0.35" style="stop-color:#091D41"/>
		<stop  offset="0.35" style="stop-color:#0A1F43"/>
		<stop  offset="0.48" style="stop-color:#17416C"/>
		<stop  offset="0.57" style="stop-color:#1F5686"/>
		<stop  offset="0.63" style="stop-color:#225E8F"/>
		<stop  offset="0.7" style="stop-color:#3081C5"/>
		<stop  offset="0.81" style="stop-color:#30ADE6"/>
		<stop  offset="0.83" style="stop-color:#42B4E8"/>
		<stop  offset="0.85" style="stop-color:#5CBFEC"/>
		<stop  offset="0.88" style="stop-color:#6FC6EE"/>
		<stop  offset="0.91" style="stop-color:#7ACBF0"/>
		<stop  offset="0.95" style="stop-color:#7ECCF0"/>
	</linearGradient>
	<path class="st0" d="M52.7,18.2c1.6-0.7,3-1.6,4.5-2.5c1.2-0.6,2.9-1.4,4.2-0.7c-1.6-0.9-3.2-2.4-5.1-2c-1.8,0.4-3.3,1.6-4.9,2.4
		c-0.4,0.2-2.1,1.4-2.5,1.2l0,0c0.9,0.6,1.8,1.1,2.8,1.6C52.1,18.5,52.1,18.5,52.7,18.2z"/>
	
		<linearGradient id="SVGID_2_" gradientUnits="userSpaceOnUse" x1="26.5485" y1="29.1208" x2="39.7385" y2="69.8308" gradientTransform="matrix(1 0 0 -1 0 74)">
		<stop  offset="0.13" style="stop-color:#051335"/>
		<stop  offset="0.35" style="stop-color:#091D41"/>
		<stop  offset="0.35" style="stop-color:#0A1F43"/>
		<stop  offset="0.48" style="stop-color:#17416C"/>
		<stop  offset="0.57" style="stop-color:#1F5686"/>
		<stop  offset="0.63" style="stop-color:#225E8F"/>
		<stop  offset="0.7" style="stop-color:#3081C5"/>
		<stop  offset="0.81" style="stop-color:#30ADE6"/>
		<stop  offset="1" style="stop-color:#7ECCF0"/>
	</linearGradient>
	<path class="st1" d="M48.2,6.5c-0.9-0.6-1.9-1.1-2.8-1.6C44.6,4.4,43.7,4.5,43,5c-1.8,1.2-3.4,2.6-4.8,4.3c-0.6,0.8-1.4,1.5-2.2,2
		c-0.8,0.3-1.7,0.4-2.5,0.4c-1.8,0-3.5,0.6-4.9,1.7c-1,0.9-1.7,2-2.1,3.2c-1.3,3.5-2.1,7.1-2.5,10.7c-0.1,0.9-0.2,1.7-0.3,2.6
		c0,0.3-0.1,1.3-0.1,1.3s1.2,0.7,1.6,0.9l1.5,0.8c0.8-5.7,1.2-9.9,2.9-14.4c0.8-2.6,2.8-4.3,5.4-4.8c1.1-0.2,2.4-0.2,3.4-0.4
		c1.2-0.3,2.1-1.1,2.9-2.1c1.1-1.4,2.4-2.7,3.8-3.8C45.9,7,47.2,5.9,48.2,6.5z"/>
	<path class="st2" d="M23.9,28.4c0,0.5-0.3,2.8-0.3,2.8l0.6,0.3l2.5,1.4c0.1-1,0.2-2,0.4-3C25.9,29.6,24.9,29,23.9,28.4z"/>
	
		<linearGradient id="SVGID_3_" gradientUnits="userSpaceOnUse" x1="18.9849" y1="21.9725" x2="57.4649" y2="68.2525" gradientTransform="matrix(1 0 0 -1 0 74)">
		<stop  offset="0" style="stop-color:#051335"/>
		<stop  offset="4.000000e-02" style="stop-color:#0A1F43"/>
		<stop  offset="0.15" style="stop-color:#17416C"/>
		<stop  offset="0.24" style="stop-color:#1F5686"/>
		<stop  offset="0.29" style="stop-color:#225E8F"/>
		<stop  offset="0.62" style="stop-color:#3081C5"/>
		<stop  offset="0.84" style="stop-color:#30ADE6"/>
		<stop  offset="1" style="stop-color:#7ECCF0"/>
	</linearGradient>
	<path class="st3" d="M46,6.8c0.9-0.5,1.6-0.7,2.2-0.3c2.5,1.5,3.7,11.4,3.7,11.9c0,0-0.1,0.4,5.1-2.6s5.6,1.5,5.6,1.7
		c-0.9,9.5-16.9,20.6-23.2,24.2S16.8,53,15.9,44.5c0.5-3.5,2.6-6.5,5.7-8.2c5.2-3,5.1-3.3,5.1-3.3c0.1-0.6,1.1-11.7,3.6-16.1
		c0.5-0.9,1.3-1.7,2.2-2.2c0.5-0.3,1-0.5,1.5-0.7c1.2-0.4,2.5-0.5,3.8-0.5c1.1-0.3,2.2-0.9,3-1.7c1.1-1.4,2.4-2.7,3.7-3.8
		C45,7.6,45.5,7.2,46,6.8z"/>
	
		<linearGradient id="SVGID_4_" gradientUnits="userSpaceOnUse" x1="25.063" y1="40.3724" x2="51.863" y2="55.5024" gradientTransform="matrix(1 0 0 -1 0 74)">
		<stop  offset="0" style="stop-color:#CA1B13"/>
		<stop  offset="0.31" style="stop-color:#D92522"/>
		<stop  offset="0.74" style="stop-color:#D97675"/>
		<stop  offset="1" style="stop-color:#D9A1A1"/>
	</linearGradient>
	<path class="st4" d="M52,18.5c-0.1-0.8-0.2-1.7-0.6-3.2C44.8,23.6,34.3,29.7,27,30c-0.3,2-0.3,2.8-0.4,3C26.7,33,39.8,33.1,52,18.5
		z"/>
	
		<linearGradient id="SVGID_5_" gradientUnits="userSpaceOnUse" x1="9.5079" y1="25.0229" x2="49.5479" y2="62.7329" gradientTransform="matrix(1 0 0 -1 0 74)">
		<stop  offset="0" style="stop-color:#225E8F"/>
		<stop  offset="0.13" style="stop-color:#051335"/>
		<stop  offset="0.16" style="stop-color:#0A1F43"/>
		<stop  offset="0.26" style="stop-color:#17416C"/>
		<stop  offset="0.34" style="stop-color:#1F5686"/>
		<stop  offset="0.39" style="stop-color:#225E8F"/>
		<stop  offset="0.62" style="stop-color:#3081C5"/>
		<stop  offset="0.84" style="stop-color:#30ADE6"/>
		<stop  offset="0.88" style="stop-color:#33AEE6"/>
		<stop  offset="0.92" style="stop-color:#3CB2E8"/>
		<stop  offset="0.95" style="stop-color:#4CB8EA"/>
		<stop  offset="0.98" style="stop-color:#63C1ED"/>
		<stop  offset="1" style="stop-color:#7ECCF0"/>
	</linearGradient>
	<path class="st5" d="M26.7,33l-3.1-1.8c0.1,0.3-2.4,1.7-2.7,1.9c-2,1.2-4.1,2.3-5.7,4.1c-1.8,2.1-3.7,6.1-1,8.3
		c1.1,0.8,2.4,1.5,3.6,2.2c-4.5-2.6,0.8-9.5,2.8-10.7C21,36.8,26.9,33.5,26.7,33z"/>
</g>
<g>
	<path class="st2" d="M48.2,56.7l-3-1.8c-0.3-0.2-0.5-0.4-0.7-0.7c-0.9-1.2-1.3-3.6-1.8-4.6c-0.3-0.6-0.2-0.9-0.4-1l3.2,1.7
		c0.1,0.1-0.1,0.5,0.3,1.1c0.5,1,0.8,3.4,1.7,4.6C47.7,56.3,47.9,56.5,48.2,56.7z"/>
	<g>
		<defs>
			<path id="SVGID_6_" d="M48.2,56.7l-3-1.8c-0.3-0.2-0.5-0.4-0.7-0.7c-0.9-1.2-1.3-3.6-1.8-4.6c-0.3-0.6-0.2-0.9-0.4-1l3.2,1.7
				c0.1,0.1-0.1,0.5,0.3,1.1c0.5,1,0.8,3.4,1.7,4.6C47.7,56.3,47.9,56.5,48.2,56.7z"/>
		</defs>
		<clipPath id="SVGID_7_">
			<use xlink:href="#SVGID_6_"  style="overflow:visible;"/>
		</clipPath>
		<g class="st6">
			<g>
				<path class="st2" d="M48.2,56.7l-3-1.8c-0.3-0.2-0.5-0.4-0.7-0.7c-0.9-1.2-1.3-3.6-1.8-4.6c-0.3-0.6-0.2-0.9-0.4-1l3.2,1.5
					c0.1,0.1,0.1,0.7,0.4,1.2c0.5,1,0.6,3.4,1.5,4.6C47.7,56.3,48,56.5,48.2,56.7"/>
			</g>
		</g>
	</g>
	<path class="st7" d="M30.9,65.8l-3-1.8l-0.2-0.2c-1.3-0.9-1.8-5.5-1.8-5.9c0-0.1,0-0.1-0.1-0.2l3,1.8c0.1,0,0.1,0.1,0.1,0.2
		c0,0.5,0.5,5,1.8,5.9L30.9,65.8z"/>
	<g>
		<defs>
			<path id="SVGID_8_" d="M30.9,65.8l-3-1.8l-0.2-0.2c-1.3-0.9-1.8-5.5-1.8-5.9c0-0.1,0-0.1-0.1-0.2l3,1.8c0.1,0,0.1,0.1,0.1,0.2
				c0,0.5,0.5,5,1.8,5.9L30.9,65.8z"/>
		</defs>
		<clipPath id="SVGID_9_">
			<use xlink:href="#SVGID_8_"  style="overflow:visible;"/>
		</clipPath>
		<g class="st8">
			<g>
				<path class="st2" d="M30.9,65.8l-3-1.8l-0.2-0.2c-1.3-0.9-1.8-5.5-1.8-5.9c0-0.1,0-0.1-0.1-0.2l3,1.8c0.1,0,0.1,0.1,0.1,0.2
					c0,0.5,0.5,5,1.8,5.9L30.9,65.8"/>
			</g>
		</g>
	</g>
	<path class="st9" d="M53.3,41.5c3.1-1.8,7.4-4.2,7.8-3.5c0.2,0.8,0.2,1.7,0,2.5c-0.2,0.3-1,0.8-1,1.3s-0.4,5.6-1.8,8
		c-1.2,2.3-3,4.1-5.3,5.2l-0.9,0.5c-3,1.7-3.7,1.7-4.6,0.5c-0.8-1.2-1.4-2.6-1.8-4.1c-0.3-1.1,0-1.8-1-1.3l-0.3,0.1l-0.2,0.2
		c-1,0.7-0.7,0.3-1,1.9c-0.3,2.3-0.9,4.5-1.8,6.6c-0.9,2.3-1.6,3-4.6,4.8l-0.9,0.5c-2.4,1.4-3.8,1.8-5.3,0.8s-1.8-5.5-1.8-5.9
		s-0.9,0-1-0.1s-0.2-1.7,0-2.5s4.7-3.7,7.8-5.5l0.8-0.5c2.5-1.4,5.9-1.8,8-2.8c2.1-1.5,5.5-4.9,8-6.5L53.3,41.5z"/>
	<path class="st10" d="M31.7,64.7c-1.1-1-1.3-4.3-1.4-5.1c-0.4-3.1,3.7-4.3,6.4-5.8l0.8-0.5c0.4-0.2,0.9-0.5,1.4-0.7
		c0.9-0.4,2,0,2.4,0.9c0.1,0.3,0.2,0.6,0.2,1c0,1.2-0.2,2.4-0.4,3.5c-0.7,3.2-3.4,5.2-7,6.7C33.5,64.8,32.2,65.1,31.7,64.7z"/>
	<path class="st10" d="M57.2,49.2c-1.2,2.3-1.6,2.5-4,4.2c-0.6,0.4-3.4,2.4-4.3,2.1s-1.8-2-2-3.5c-0.4-1.7,0.3-3.4,1.7-4.5
		c1.1-0.9,6.2-5.4,8.5-5.6c1-0.1,1.4,1.3,1.3,2.2C58.1,46.2,58.2,47.3,57.2,49.2z"/>
	
		<linearGradient id="SVGID_10_" gradientUnits="userSpaceOnUse" x1="19.7665" y1="8.1921" x2="60.7265" y2="42.1321" gradientTransform="matrix(1 0 0 -1 0 74)">
		<stop  offset="0" style="stop-color:#CA1B13"/>
		<stop  offset="0.31" style="stop-color:#D92522"/>
		<stop  offset="0.74" style="stop-color:#D97675"/>
		<stop  offset="1" style="stop-color:#D9A1A1"/>
	</linearGradient>
	<path class="st11" d="M58,36.2c-0.3-0.2-0.9,0.2-1.2,0.3c-0.8,0.3-1.5,0.7-2.3,1c-1.8,0.9-3.6,1.8-5.3,2.9
		c-1.7,1.1-3.2,2.4-4.7,3.7c-1.3,1.1-2.5,2.4-4.2,3c-1.9,0.7-3.9,1-5.8,1.8c-1.6,0.8-3.2,1.7-4.7,2.7c-1.3,0.8-2.6,1.7-3.9,2.7
		c-0.5,0.3-0.9,0.7-1.1,1.1c-0.3,0.7-0.4,2.1,0.2,2.6c0.9,0.6,1.8,1.2,2.8,1.7c-0.5-0.3,0.2-2.5,0.4-2.8c0.6-0.7,1.3-1.4,2.2-1.8
		c2.3-1.6,4.8-3.1,7.3-4.4c1.5-0.6,3-1.1,4.5-1.4c1.3-0.3,2.6-0.9,3.6-1.8c2.4-2,4.6-4.3,7.3-6c1.6-0.9,3.2-1.8,4.8-2.5
		c1.8-0.6,2.4-1.5,3.1-1.1L58,36.2z"/>
</g>
</svg>
