<svg id="Layer_3" data-name="Layer 3" xmlns="http://www.w3.org/2000/svg" xmlns:xlink="http://www.w3.org/1999/xlink" viewBox="0 0 80.55 72.5"><defs><style>.cls-1{fill:none;}.cls-2{isolation:isolate;}.cls-3{fill:url(#linear-gradient);}.cls-4{clip-path:url(#clip-path);}.cls-5{fill:url(#linear-gradient-2);}.cls-6{fill:url(#linear-gradient-3);}.cls-7{fill:url(#linear-gradient-4);}.cls-8{fill:url(#linear-gradient-5);}.cls-9{fill:url(#linear-gradient-6);}.cls-10{fill:url(#linear-gradient-7);}.cls-11{fill:url(#linear-gradient-8);}.cls-12{fill:url(#linear-gradient-9);}.cls-13{fill:url(#linear-gradient-10);}.cls-14{fill:url(#linear-gradient-11);}.cls-15{fill:url(#linear-gradient-12);}.cls-16{fill:url(#linear-gradient-13);}.cls-17{fill:url(#linear-gradient-14);}.cls-18{fill:url(#linear-gradient-15);}.cls-19{fill:url(#linear-gradient-16);}.cls-20{fill:url(#linear-gradient-17);}</style><linearGradient id="linear-gradient" x1="40.69" y1="11.58" x2="61.87" y2="11.58" gradientUnits="userSpaceOnUse"><stop offset="0" stop-color="#30ade6"/><stop offset="0.12" stop-color="#39b1e7"/><stop offset="0.31" stop-color="#53bbea"/><stop offset="0.56" stop-color="#7ccbef"/><stop offset="0.85" stop-color="#b5e2f6"/><stop offset="1" stop-color="#d4eefa"/></linearGradient><clipPath id="clip-path"><path class="cls-1" d="M31.77,60.64,28,58.42C24.14,56.2,23.42,52,23.4,46.87l-.06-19.48,3.82,2.22.06,19.48C27.23,54.19,28,58.42,31.77,60.64Z"/></clipPath><linearGradient id="linear-gradient-2" x1="23.35" y1="44.01" x2="31.77" y2="44.01" gradientUnits="userSpaceOnUse"><stop offset="0" stop-color="#1b264a"/><stop offset="1" stop-color="#0a0e1b"/></linearGradient><linearGradient id="linear-gradient-3" x1="12.89" y1="54.9" x2="72.44" y2="24.28" gradientUnits="userSpaceOnUse"><stop offset="0" stop-color="#051335"/><stop offset="0.05" stop-color="#0a1f43"/><stop offset="0.21" stop-color="#17416c"/><stop offset="0.34" stop-color="#1f5686"/><stop offset="0.41" stop-color="#225e8f"/><stop offset="0.73" stop-color="#3081c5"/><stop offset="1" stop-color="#30ade6"/></linearGradient><linearGradient id="linear-gradient-4" x1="23.35" y1="21.3" x2="44.51" y2="21.3" xlink:href="#linear-gradient"/><linearGradient id="linear-gradient-5" x1="12.6" y1="47.02" x2="63.61" y2="37.33" gradientUnits="userSpaceOnUse"><stop offset="0.3" stop-color="#3fb3e8"/><stop offset="0.34" stop-color="#52a2d0"/><stop offset="0.46" stop-color="#817693"/><stop offset="0.56" stop-color="#a75362"/><stop offset="0.66" stop-color="#c23a3f"/><stop offset="0.73" stop-color="#d32b2a"/><stop offset="0.78" stop-color="#d92522"/><stop offset="0.81" stop-color="#d92a27"/><stop offset="0.84" stop-color="#d93936"/><stop offset="0.87" stop-color="#d9514f"/><stop offset="0.91" stop-color="#d97372"/><stop offset="0.91" stop-color="#d97675"/></linearGradient><linearGradient id="linear-gradient-6" x1="33.4" y1="44.9" x2="38.18" y2="44.9" gradientUnits="userSpaceOnUse"><stop offset="0" stop-color="#0a0e1b"/><stop offset="1" stop-color="#161f3d"/></linearGradient><linearGradient id="linear-gradient-7" x1="33.4" y1="29.89" x2="46.73" y2="29.89" xlink:href="#linear-gradient-3"/><linearGradient id="linear-gradient-8" x1="44.86" y1="23.3" x2="58.17" y2="23.3" xlink:href="#linear-gradient-3"/><linearGradient id="linear-gradient-9" x1="24.1" y1="42.77" x2="28.42" y2="42.77" xlink:href="#linear-gradient-3"/><linearGradient id="linear-gradient-10" x1="22.37" y1="43.79" x2="25.97" y2="43.79" xlink:href="#linear-gradient-3"/><linearGradient id="linear-gradient-11" x1="17.2" y1="45.78" x2="24.24" y2="45.78" xlink:href="#linear-gradient-3"/><linearGradient id="linear-gradient-12" x1="23.11" y1="39.33" x2="22.66" y2="45.27" xlink:href="#linear-gradient-3"/><linearGradient id="linear-gradient-13" x1="15.47" y1="47.77" x2="19.07" y2="47.77" xlink:href="#linear-gradient-3"/><linearGradient id="linear-gradient-14" x1="14.83" y1="61.67" x2="14.43" y2="19.38" xlink:href="#linear-gradient-3"/><linearGradient id="linear-gradient-15" x1="8.57" y1="62.05" x2="29.3" y2="42.11" gradientUnits="userSpaceOnUse"><stop offset="0" stop-color="#051335"/><stop offset="0.04" stop-color="#0a1f43"/><stop offset="0.15" stop-color="#17416c"/><stop offset="0.24" stop-color="#1f5686"/><stop offset="0.29" stop-color="#225e8f"/><stop offset="0.62" stop-color="#3081c5"/><stop offset="0.84" stop-color="#30ade6"/><stop offset="1" stop-color="#7eccf0"/></linearGradient><linearGradient id="linear-gradient-16" x1="14.86" y1="49.7" x2="22.53" y2="35.16" gradientUnits="userSpaceOnUse"><stop offset="0" stop-color="#051335"/><stop offset="0.04" stop-color="#0a1f43"/><stop offset="0.18" stop-color="#17416c"/><stop offset="0.28" stop-color="#1f5686"/><stop offset="0.35" stop-color="#225e8f"/><stop offset="0.57" stop-color="#3081c5"/><stop offset="0.71" stop-color="#30ade6"/><stop offset="0.8" stop-color="#aedff5"/></linearGradient><linearGradient id="linear-gradient-17" x1="20" y1="55.28" x2="24.38" y2="51.06" xlink:href="#linear-gradient-6"/></defs><title>icons_features</title><g class="cls-2"><path class="cls-3" d="M58.06,7.35a14.85,14.85,0,0,1-2.81,2.2,29.08,29.08,0,0,1-3.3,1.81,22.51,22.51,0,0,1-7.23,2.19,7.38,7.38,0,0,1-4-.55l2,1.15,1.31.76a7.5,7.5,0,0,0,.76.41,6.88,6.88,0,0,0,2.85.49,14.33,14.33,0,0,0,3-.41,26.68,26.68,0,0,0,5.72-2.11A29.11,29.11,0,0,0,59,11.78,17.41,17.41,0,0,0,61.39,10c.17-.15.33-.3.48-.47l-1.29-.75L58.53,7.63Z"/><g class="cls-2"><g class="cls-4"><path class="cls-5" d="M31.77,60.64,28,58.42C24.14,56.2,23.42,52,23.4,46.87l-.06-19.48,3.82,2.22.06,19.48c0,5.1.73,9.33,4.55,11.55"/></g></g><path class="cls-6" d="M44.51,15.21c3.29,1.66,9.32-.4,13.54-2.83a17.92,17.92,0,0,0,3.83-2.81L61.93,29c0,8.58-2,17-17.29,33-15.38,1.79-17.4-4.34-17.42-12.91l-.06-19.48A11.73,11.73,0,0,0,31,28C35.21,25.56,41.24,20.66,44.51,15.21Z"/><path class="cls-7" d="M44.15,15.8l.36-.58-2.27-1.32-1.3-.75-.17-.1s-.06,0-.08,0-.11.17-.13.2l-.24.38-.49.74a34.86,34.86,0,0,1-4.6,5.32,45.76,45.76,0,0,1-5.37,4.42c-.95.67-1.92,1.3-2.93,1.86a14.26,14.26,0,0,1-2.87,1.31,4,4,0,0,1-.72.16l2.23,1.29,1.31.76a1.64,1.64,0,0,0,.27.16.19.19,0,0,0,.09,0l.36-.07a6.59,6.59,0,0,0,.68-.21,17.55,17.55,0,0,0,2.85-1.4c1-.58,2-1.21,2.88-1.88a46.13,46.13,0,0,0,5.21-4.35,34.56,34.56,0,0,0,4.44-5.17Z"/></g><g class="cls-2"><path class="cls-8" d="M46.73,25.41c3.62.07,7.88-1.36,11.44-3.12l0,12.16a19.23,19.23,0,0,1-1.62,8.75c-1.65,3.65-4.85,8-9.77,13.4-4.93.34-8.15-.35-9.81-2.09-1.38-1.45-1.66-3.61-1.66-6.85l0-12.16A55.75,55.75,0,0,0,46.73,25.41Z"/><path class="cls-9" d="M37,54.5c-1.38-1.45-1.66-3.61-1.66-6.85l0-12.16L33.4,34.38l0,12.16c0,3.24.28,5.4,1.66,6.85a5.23,5.23,0,0,0,1.17.91l1.91,1.11A5.23,5.23,0,0,1,37,54.5Z"/><path class="cls-10" d="M44.86,24.3c-.06,0-.06,0-.09.06l-.28.32-.57.65A55.46,55.46,0,0,1,39.14,30a54.47,54.47,0,0,1-5.09,3.93l-.65.44,1.44.84.35.2.1.06s.05,0,.11,0q.85-.57,1.68-1.16,1.68-1.21,3.27-2.55t3.13-2.83Q45,27.4,46.4,25.79l.33-.38Z"/><path class="cls-11" d="M44.86,24.3h.28a15.3,15.3,0,0,0,1.56-.09,21.93,21.93,0,0,0,3.22-.61,33.65,33.65,0,0,0,6-2.27l.22-.11a.48.48,0,0,1,.11-.05l0,0a1.2,1.2,0,0,1,.18.11l.65.38,1,.6-1.22.58a33.49,33.49,0,0,1-4.43,1.65q-.62.18-1.24.33a18.26,18.26,0,0,1-4.54.56Z"/></g><g class="cls-2"><path class="cls-12" d="M27.71,42.86h0l.1,0h.41l.08,0h0l.09,0h0L26.55,41.8h0l-.07,0h-.56l-.07,0h0l-.09,0,0,0,0,0-.13.07-1.46.84L26,43.83,27.43,43l.13-.07,0,0Z"/><polygon class="cls-13" points="24.24 44.83 22.37 43.74 24.1 42.74 25.97 43.83 24.24 44.83"/><polygon class="cls-14" points="19.07 47.81 17.2 46.73 22.37 43.74 24.24 44.83 19.07 47.81"/><path class="cls-15" d="M24.23,41.44a1.81,1.81,0,0,0-.75-1.66l-1.87-1.09a1.81,1.81,0,0,1,.75,1.66v3.39l1.87,1.09Z"/><polygon class="cls-16" points="17.34 48.81 15.47 47.72 17.2 46.73 19.07 47.81 17.34 48.81"/><path class="cls-17" d="M14.54,51.62c.31-1.52,1.58-2.1,2.8-2.8-.44-.26-1.37-1.08-1.87-1.09s-1.36.74-1.72,1a3.14,3.14,0,0,0-1,1.6,15.18,15.18,0,0,0-.2,3.21l-.25,6a3.66,3.66,0,0,0,.09,1.81c.39.63,1.52,1,2.14,1.36-.61-.35-.37-1.74-.35-2.33.05-1.19.09-2.14.14-3.33C14.35,55.29,14.49,53.49,14.54,51.62Z"/><path class="cls-18" d="M28.83,43.7c0-.83-.66-1.14-1.4-.71L26,43.83V40.18c0-2.74-1.95-3.84-4.33-2.47a9.07,9.07,0,0,0-4.3,7.45v3.65l-1.46.84A3.08,3.08,0,0,0,14.49,52l-.41,9.74c0,.94.6,1.35,1.4.88l12.43-7.18a3,3,0,0,0,1.39-2.49Zm-9.76,4.11V44.43A5.68,5.68,0,0,1,21.64,40c1.43-.82,2.59-.16,2.6,1.48v3.39Z"/><path class="cls-19" d="M22.06,37.49a2.88,2.88,0,0,1,2.64-.08h0A7.19,7.19,0,0,0,21.84,36a4.76,4.76,0,0,0-3.26,1.46,9.65,9.65,0,0,0-3.12,7.3c0,.56,0,2.92,0,2.92l1.87,1.1a27,27,0,0,1,.28-5.63A8.85,8.85,0,0,1,22.06,37.49Z"/></g><path class="cls-20" d="M23.25,54.37a1.92,1.92,0,0,1-.87,1.51c-.48.28-.87.06-.88-.5v-1.8a.91.91,0,0,1-.55-1,3.13,3.13,0,0,1,1.42-2.46c.79-.45,1.42-.09,1.43.81a3,3,0,0,1-.55,1.6Z"/></svg>