<svg data-name="lottery" xmlns="http://www.w3.org/2000/svg" xmlns:xlink="http://www.w3.org/1999/xlink" viewBox="0 0 200 168"><defs><linearGradient id="f" x1="123.13" y1="67.75" x2="161.89" y2="81.01" gradientTransform="matrix(1 0 0 -1 0 167.89)" gradientUnits="userSpaceOnUse"><stop offset="0" stop-color="#30ade6"/><stop offset=".12" stop-color="#39b1e7"/><stop offset=".31" stop-color="#53bbea"/><stop offset=".56" stop-color="#7ccbef"/><stop offset=".85" stop-color="#b5e2f6"/><stop offset="1" stop-color="#d4eefa"/></linearGradient><linearGradient id="a" x1="121.75" y1="92.08" x2="137.49" y2="92.08" gradientTransform="matrix(1 0 0 -1 0 167.89)" gradientUnits="userSpaceOnUse"><stop offset="0" stop-color="#30ade6"/><stop offset=".27" stop-color="#3081c5"/><stop offset=".59" stop-color="#225e8f"/><stop offset=".66" stop-color="#1f5686"/><stop offset=".79" stop-color="#17416c"/><stop offset=".95" stop-color="#0a1f43"/><stop offset="1" stop-color="#051335"/></linearGradient><linearGradient id="g" x1="141.09" y1="86.38" x2="99.5" y2="74.35" gradientTransform="matrix(1 0 0 -1 0 167.89)" gradientUnits="userSpaceOnUse"><stop offset="0" stop-color="#1b264a"/><stop offset="1" stop-color="#0a0e1b"/></linearGradient><linearGradient id="h" x1="142.14" y1="111.96" x2="144.23" y2="25.32" xlink:href="#a"/><linearGradient id="b" x1="87.51" y1="139.21" x2="132.46" y2="61.35" gradientTransform="matrix(1 0 0 -1 0 167.89)" gradientUnits="userSpaceOnUse"><stop offset=".07" stop-color="#30ade6"/><stop offset=".19" stop-color="#59bdeb"/><stop offset=".44" stop-color="#c1e6f8"/><stop offset=".48" stop-color="#d4eefa"/><stop offset=".53" stop-color="#cdebf9"/><stop offset="1" stop-color="#30ade6"/></linearGradient><linearGradient id="i" x1="133.54" y1="84.68" x2="146.07" y2="140.87" xlink:href="#b"/><linearGradient id="e" x1="133.54" y1="84.68" x2="146.07" y2="140.87" gradientTransform="matrix(1 0 0 -1 0 167.89)" gradientUnits="userSpaceOnUse"><stop offset="0" stop-color="#051335"/><stop offset=".05" stop-color="#0a1f43"/><stop offset=".21" stop-color="#17416c"/><stop offset=".34" stop-color="#1f5686"/><stop offset=".41" stop-color="#225e8f"/><stop offset=".73" stop-color="#3081c5"/><stop offset="1" stop-color="#30ade6"/></linearGradient><linearGradient id="j" x1="45.68" y1="47.41" x2="73.34" y2="104.62" xlink:href="#b"/><radialGradient id="c" cx="51.31" cy="64.73" r="27.61" gradientTransform="matrix(1 0 0 -1 0 167.89)" gradientUnits="userSpaceOnUse"><stop offset="0" stop-color="#d4eefa"/><stop offset=".14" stop-color="#c0e6f8"/><stop offset=".43" stop-color="#8cd2f1"/><stop offset=".84" stop-color="#39b1e7"/><stop offset=".88" stop-color="#30ade6"/></radialGradient><radialGradient id="k" cx="108.05" cy="98.41" r="27.61" xlink:href="#c"/><linearGradient id="d" x1="103.34" y1="101.21" x2="121.81" y2="119.2" gradientTransform="matrix(.32 .95 .95 -.32 -27.35 -9.26)" gradientUnits="userSpaceOnUse"><stop offset="0" stop-color="#d92522"/><stop offset="1" stop-color="#efa8a8"/></linearGradient><radialGradient id="l" cx="142.68" cy="89.38" r="27.61" xlink:href="#c"/><radialGradient id="m" cx="131.65" cy="99.43" r="27.61" xlink:href="#c"/><radialGradient id="n" cx="98.53" cy="65.65" r="27.61" xlink:href="#c"/><linearGradient id="o" x1="87.51" y1="139.21" x2="132.46" y2="61.35" gradientTransform="matrix(1 0 0 -1 0 167.89)" gradientUnits="userSpaceOnUse"><stop offset=".07" stop-color="#30ade6"/><stop offset=".18" stop-color="#59bdeb"/><stop offset=".43" stop-color="#c1e6f8"/><stop offset=".48" stop-color="#d4eefa"/><stop offset=".53" stop-color="#cdebf9"/><stop offset="1" stop-color="#30ade6"/></linearGradient><radialGradient id="p" cx="-3337.91" cy="262.31" r="27.61" gradientTransform="matrix(1 0 0 -1 3419.68 329.75)" xlink:href="#c"/><linearGradient id="q" x1="105.43" y1="72.28" x2="131.21" y2="72.28" gradientTransform="matrix(1 0 0 -1 0 167.89)" xlink:href="#d"/><radialGradient id="r" cx="92.91" cy="84.11" r="27.61" xlink:href="#c"/><linearGradient id="s" x1="56.61" y1="73.88" x2="82.39" y2="73.88" gradientTransform="matrix(1 0 0 -1 0 167.89)" xlink:href="#d"/><radialGradient id="t" cx="75.26" cy="54.34" r="27.61" xlink:href="#c"/><linearGradient id="u" x1="48.99" y1="35.64" x2="61.52" y2="91.84" xlink:href="#e"/><linearGradient id="v" x1="38.3" y1="19.25" x2="77.06" y2="32.51" xlink:href="#f"/><linearGradient id="w" x1="36.91" y1="43.58" x2="52.65" y2="43.58" xlink:href="#a"/><linearGradient id="x" x1="56.26" y1="37.88" x2="14.66" y2="25.85" xlink:href="#g"/><linearGradient id="y" x1="57.01" y1="63.45" x2="59.1" y2="-23.19" xlink:href="#a"/></defs><path fill="url(#f)" d="M121.75 91.19l4.77-2.78 21.74 12.56-4.77 2.77-21.74-12.55z"/><path d="M148.7 108.42l4.77-2.77v.06l-4.77 2.77v-.06" fill="#215c8d"/><path d="M148.72 108.48l4.77-2.77v.12l-4.77 2.77v-.12" fill="#215a8a"/><path d="M148.74 108.6l4.77-2.77v.12l-4.77 2.77v-.12" fill="#205886"/><path d="M148.77 108.71l4.77-2.77v.06l-4.77 2.77v-.11" fill="#1f5683"/><path d="M148.79 108.83l4.77-2.77v.11l-4.77 2.77v-.11" fill="#1e5480"/><path d="M148.8 108.94l4.77-2.77v.11l-4.76 2.72v-.11" fill="#1e527d"/><path d="M148.81 109l4.77-2.77v.11l-4.77 2.77V109" fill="#1d507a"/><path d="M148.82 109.16l4.77-2.77v.11l-4.77 2.77v-.11" fill="#1c4e76"/><path d="M148.83 109.26l4.77-2.77v.1l-4.77 2.77v-.1" fill="#1b4c73"/><path d="M148.83 109.37l4.77-2.77v.1l-4.77 2.77v-.1" fill="#1b4a70"/><path d="M148.83 109.47l4.77-2.77v.1l-4.77 2.77v-.1" fill="#1a476d"/><path d="M148.82 109.57l4.77-2.77v.1l-4.77 2.77v-.1" fill="#19456a"/><path d="M148.81 109.68l4.77-2.77v.09l-4.77 2.77v-.11" fill="#184366"/><path d="M148.79 109.79l4.77-2.77v.11l-4.77 2.77v-.11" fill="#184163"/><path d="M148.77 109.89l4.77-2.77v.11l-4.8 2.77v-.11" fill="#173f60"/><path d="M148.74 110l4.77-2.77v.12l-4.77 2.77V110" fill="#163d5d"/><path d="M148.7 110.13l4.77-2.77-.05.13-4.77 2.77.05-.13" fill="#153b5a"/><path d="M148.65 110.25l4.77-2.77-.08.15-4.77 2.77.08-.15" fill="#153956"/><path d="M148.57 110.4l4.77-2.77a1.21 1.21 0 0 1-.14.18 1.09 1.09 0 0 1-.24.19l-4.77 2.77a1.09 1.09 0 0 0 .24-.19 1.21 1.21 0 0 0 .14-.18" fill="#143753"/><path fill="url(#a)" d="M132.71 63.21l4.78-2.78-10.97 27.98-4.77 2.78 10.96-27.98z"/><path d="M148.7 108.42a2.34 2.34 0 0 1-.27 2.16 1.42 1.42 0 0 1-1.81 0l-28-16.19a4.72 4.72 0 0 1-1.8-2.12 3.36 3.36 0 0 1-.26-2.47l14.14-36.09c.32-.82 1.15-1 2.08-.47a4.91 4.91 0 0 1 2.07 2.86zm-27-17.23l21.74 12.55-10.73-40.53-11 28" fill="url(#g)"/><path d="M153.47 105.64l-13.89-52.27V52.7l-.06-.13-.11-.2v-.06l-.13-.21-.08-.11-.09-.12-.09-.11-.07-.08-.09-.1-.09-.09-.09-.09-.07-.06-.1-.09-.1-.08-.09-.07-.09-.06-.09-.06h-1.37l-.18.08-4.77 2.77a1.08 1.08 0 0 1 .33-.12 1.32 1.32 0 0 1 .37 0 1.79 1.79 0 0 1 .41.09 2.51 2.51 0 0 1 .44.2l.33.22.31.27.3.31c.09.11.19.22.27.34l.21.32v.06a3.72 3.72 0 0 1 .21.39 3.79 3.79 0 0 1 .18.42c.05.14.1.29.14.43L149.21 109a2.34 2.34 0 0 1-.27 2.16 1.08 1.08 0 0 1-.24.19L153 108a1.09 1.09 0 0 0 .24-.19 2.34 2.34 0 0 0 .23-2.17z" fill="url(#h)"/><path d="M173 66.39V63.3a6.58 6.58 0 0 0-.1-.88 2.53 2.53 0 0 0-.06-.51v-.17q-.1-.8-.23-1.6v-.23c-.07-.45-.15-.9-.23-1.34v-.24a3.83 3.83 0 0 0-.13-.64c0-.22-.1-.52-.16-.78l-.1-.43-.16-.7a2.62 2.62 0 0 0-.12-.54c0-.18-.11-.43-.17-.65l-.18-.7-.09-.34-.27-.92-.17-.59v-.17q-.25-.82-.53-1.64v-.14c-.16-.49-.33-1-.51-1.46l-.09-.23-.21-.55-.29-.78-.2-.5-.24-.6-.18-.44-.38-.88-.2-.47-.07-.17q-.34-.77-.7-1.53v-.07L167 42c-.19-.39-.37-.79-.57-1.18l-.1-.18-.49-1-.4-.77-.08-.14q-.66-1.24-1.37-2.45l-.12-.21-.37-.61-.6-1-.55-.87-.63-1-.21-.32-.21-.3c-.59-.87-1.19-1.73-1.8-2.57q-.65-.89-1.33-1.75l-.06-.08c-.34-.43-.68-.85-1-1.27l-.19-.23q-.61-.73-1.23-1.44l-.06-.07-.39-.43-.79-.87-.15-.16-.55-.57-.6-.63-.23-.23-.6-.59-.51-.51-.3-.28-.65-.61-.45-.42-.36-.31-.66-.57L149 18l-.44-.36-.65-.53-.33-.27-.55-.42L146 16l-.24-.19-.74-.53-.51-.36-.13-.09q-.67-.46-1.35-.89l-.1-.06-1.23-.75-.31-.18-1-.57-.38-.2-.52-.27-.4-.21-.64-.3-.46-.22-.19-.09-1.27-.54q-.64-.26-1.28-.48L135 10l-.46-.15-.65-.21-.32-.09-.57-.14-.43-.12-.45-.1-.56-.12-.3-.07-.52-.09-.64-.11h-.23l-.53-.05-.69-.07h-4a5.84 5.84 0 0 0-1.11.18l-.3.07-.9.22-.43.13-.57.18-.14.06c-.29.1-.56.22-.84.34l-.41.17c-.41.19-.8.39-1.19.62L33.57 60.19c.39-.22.78-.43 1.19-.62l.41-.17c.28-.12.56-.24.84-.34l.7-.23.43-.13.9-.22.29-.07c.38-.08.76-.14 1.15-.19h.31l.71-.06h3l.69.07.75.09.64.11.82.15.56.12.88.22.56.15 1 .3.46.15c.48.16 1 .34 1.44.53.48.19 1 .4 1.46.63l.46.22 1 .51.52.27c.46.24.93.49 1.39.76s1 .61 1.54.94l.1.06c.5.32 1 .65 1.49 1l.51.36 1 .72.6.46.88.69.65.53.83.7.66.57.81.73.65.61.81.79.6.59.83.86.54.57.94 1L70 74q.66.75 1.3 1.52l.19.23 1.09 1.35q.68.86 1.33 1.75c.62.84 1.22 1.7 1.8 2.57l.42.62.62 1 .55.87.6 1 .49.82q.71 1.21 1.37 2.45l.47.91.49 1c.23.45.45.91.66 1.36l.21.44q.41.88.8 1.77l.2.47.56 1.32.24.6.49 1.28.21.55q.31.84.59 1.69v.14q.31.92.58 1.83l.17.6.36 1.26.18.7q.15.59.29 1.18l.16.7c.09.41.18.81.26 1.22a3.83 3.83 0 0 0 .13.64q.15.79.28 1.58v.23q.14.9.25 1.8a1.49 1.49 0 0 0 .06.51c0 .43.09.86.13 1.29v.61a10.43 10.43 0 0 0 .07 1.21v4.52a5.61 5.61 0 0 1-.08 1.16 2.12 2.12 0 0 1-.07.66 9.49 9.49 0 0 0-.12 1c-.05.35-.07.46-.1.69s-.1.58-.15.87-.1.51-.15.76-.11.51-.17.76-.15.58-.23.87-.13.45-.19.66-.22.68-.34 1-.14.42-.22.62l-.12.3q-.21.51-.43 1l-.09.19a20 20 0 0 1-1.28 2.32l-.14.21q-.27.4-.55.78l-.23.3-.55.67-.21.25c-.26.29-.52.57-.79.83l-.12.11q-.36.34-.73.65l-.28.22-.65.49-.28.2c-.31.21-.62.41-.94.6l85.13-49.47c.32-.19.63-.39.94-.6l.27-.2.65-.49.27-.22q.37-.31.73-.65l.12-.11c.27-.26.54-.54.79-.83l.21-.25.55-.67.23-.3q.28-.38.55-.78L169 83v-.06a20 20 0 0 0 1.2-2.17v-.08l.09-.19q.23-.49.43-1l.12-.3.09-.22a1.56 1.56 0 0 1 .13-.4c.12-.33.23-.67.34-1a1 1 0 0 1 .09-.27c0-.09.07-.27.1-.4q.12-.43.23-.87a1.72 1.72 0 0 1 .09-.36c0-.13.05-.27.08-.4s.1-.5.15-.76.06-.26.08-.39a1.62 1.62 0 0 1 .07-.47 3.16 3.16 0 0 0 .1-.69c0-.23 0-.23.05-.35s0-.41.06-.61 0-.44.07-.66 0-.17 0-.26a4.54 4.54 0 0 1 .06-.9 1.23 1.23 0 0 0 0-.48v-1.77a3.59 3.59 0 0 0 .37-1.55z" opacity=".2" fill="url(#b)" style="isolation:isolate"/><path d="M154.49 90.76c-4.47 0-9.39-1.49-14.45-4.45C122.9 76.3 109 52 109.06 32c0-10 3.49-17.53 9.75-21.17S133.36 8 142 13c17.15 10 31 34.36 31 54.28 0 10-3.49 17.53-9.75 21.17a17.21 17.21 0 0 1-8.76 2.31z" fill="url(#i)" opacity=".2"/><path d="M154.49 90.76c-4.47 0-9.39-1.49-14.45-4.45C122.9 76.3 109 52 109.06 32c0-10 3.49-17.53 9.75-21.17S133.36 8 142 13c17.15 10 31 34.36 31 54.28 0 10-3.49 17.53-9.75 21.17a17.21 17.21 0 0 1-8.76 2.31zm-26.9-78.57a13.74 13.74 0 0 0-7 1.8c-5.11 3-7.94 9.39-8 18.06-.05 18.77 13.05 41.72 29.21 51.15 7.52 4.39 14.51 5.16 19.66 2.16s7.94-9.39 8-18.06c.05-18.77-13.05-41.72-29.21-51.15-4.51-2.64-8.82-4-12.66-4z" fill="url(#e)"/><path d="M56.2 62.41c17.56 10.14 31.75 34.71 31.69 54.89S73.55 145.61 56 135.47s-31.76-34.71-31.7-54.89 14.34-28.31 31.9-18.17z" opacity=".2" fill="url(#j)" style="isolation:isolate"/><circle cx="49.86" cy="107.83" r="12.89" fill="url(#c)"/><ellipse cx="49.86" cy="104.24" rx="7.64" ry="6.92" fill="#fff"/><circle cx="106.6" cy="74.15" r="12.89" fill="url(#k)"/><ellipse cx="106.6" cy="70.56" rx="7.64" ry="6.92" fill="#fff"/><circle cx="109.95" cy="60.23" r="12.89" transform="rotate(-71.24 109.951 60.23)" fill="url(#d)"/><ellipse cx="106.56" cy="59.08" rx="7.64" ry="6.92" transform="rotate(-71.24 106.562 59.08)" fill="#fff"/><circle cx="141.22" cy="83.17" r="12.89" fill="url(#l)"/><ellipse cx="141.22" cy="79.59" rx="7.64" ry="6.92" fill="#fff"/><circle cx="130.2" cy="73.13" r="12.89" fill="url(#m)"/><ellipse cx="131.15" cy="77.18" rx="7.64" ry="6.92" fill="#fff"/><circle cx="97.07" cy="106.9" r="12.89" fill="url(#n)"/><ellipse cx="98.03" cy="110.96" rx="7.64" ry="6.92" fill="#fff"/><path d="M173 66.39V63.3a6.58 6.58 0 0 0-.1-.88 2.53 2.53 0 0 0-.06-.51v-.17q-.1-.8-.23-1.6v-.23c-.07-.45-.15-.9-.23-1.34v-.24a3.83 3.83 0 0 0-.13-.64c0-.22-.1-.52-.16-.78l-.1-.43-.16-.7a2.62 2.62 0 0 0-.12-.54c0-.18-.11-.43-.17-.65l-.18-.7-.09-.34-.27-.92-.17-.59v-.17q-.25-.82-.53-1.64v-.14c-.16-.49-.33-1-.51-1.46l-.09-.23-.21-.55-.29-.78-.2-.5-.24-.6-.18-.44-.38-.88-.2-.47-.07-.17q-.34-.77-.7-1.53v-.07L167 42c-.19-.39-.37-.79-.57-1.18l-.1-.18-.49-1-.4-.77-.08-.14q-.66-1.24-1.37-2.45l-.12-.21-.37-.61-.6-1-.55-.87-.63-1-.21-.32-.21-.3c-.59-.87-1.19-1.73-1.8-2.57q-.65-.89-1.33-1.75l-.06-.08c-.34-.43-.68-.85-1-1.27l-.19-.23q-.61-.73-1.23-1.44l-.06-.07-.39-.43-.79-.87-.15-.16-.55-.57-.6-.63-.23-.23-.6-.59-.51-.51-.3-.28-.65-.61-.45-.42-.36-.31-.66-.57L149 18l-.44-.36-.65-.53-.33-.27-.55-.42L146 16l-.24-.19-.74-.53-.51-.36-.13-.09q-.67-.46-1.35-.89l-.1-.06-1.23-.75-.31-.18-1-.57-.38-.2-.52-.27-.4-.21-.64-.3-.46-.22-.19-.09-1.27-.54q-.64-.26-1.28-.48L135 10l-.46-.15-.65-.21-.32-.09-.57-.14-.43-.12-.45-.1-.56-.12-.3-.07-.52-.09-.64-.11h-.23l-.53-.05-.69-.07h-4a5.84 5.84 0 0 0-1.11.18l-.3.07-.9.22-.43.13-.57.18-.14.06c-.29.1-.56.22-.84.34l-.41.17c-.41.19-.8.39-1.19.62L33.57 60.19c.39-.22.78-.43 1.19-.62l.41-.17c.28-.12.56-.24.84-.34l.7-.23.43-.13.9-.22.29-.07c.38-.08.76-.14 1.15-.19h.31l.71-.06h3l.69.07.75.09.64.11.82.15.56.12.88.22.56.15 1 .3.46.15c.48.16 1 .34 1.44.53.48.19 1 .4 1.46.63l.46.22 1 .51.52.27c.46.24.93.49 1.39.76s1 .61 1.54.94l.1.06c.5.32 1 .65 1.49 1l.51.36 1 .72.6.46.88.69.65.53.83.7.66.57.81.73.65.61.81.79.6.59.83.86.54.57.94 1L70 74q.66.75 1.3 1.52l.19.23 1.09 1.35q.68.86 1.33 1.75c.62.84 1.22 1.7 1.8 2.57l.42.62.62 1 .55.87.6 1 .49.82q.71 1.21 1.37 2.45l.47.91.49 1c.23.45.45.91.66 1.36l.21.44q.41.88.8 1.77l.2.47.56 1.32.24.6.49 1.28.21.55q.31.84.59 1.69v.14q.31.92.58 1.83l.17.6.36 1.26.18.7q.15.59.29 1.18l.16.7c.09.41.18.81.26 1.22a3.83 3.83 0 0 0 .13.64q.15.79.28 1.58v.23q.14.9.25 1.8a1.49 1.49 0 0 0 .06.51c0 .43.09.86.13 1.29v.61a10.43 10.43 0 0 0 .07 1.21v4.52a5.61 5.61 0 0 1-.08 1.16 2.12 2.12 0 0 1-.07.66 9.49 9.49 0 0 0-.12 1c-.05.35-.07.46-.1.69s-.1.58-.15.87-.1.51-.15.76-.11.51-.17.76-.15.58-.23.87-.13.45-.19.66-.22.68-.34 1-.14.42-.22.62l-.12.3q-.21.51-.43 1l-.09.19a20 20 0 0 1-1.28 2.32l-.14.21q-.27.4-.55.78l-.23.3-.55.67-.21.25c-.26.29-.52.57-.79.83l-.12.11q-.36.34-.73.65l-.28.22-.65.49-.28.2c-.31.21-.62.41-.94.6l85.13-49.47c.32-.19.63-.39.94-.6l.27-.2.65-.49.27-.22q.37-.31.73-.65l.12-.11c.27-.26.54-.54.79-.83l.21-.25.55-.67.23-.3q.28-.38.55-.78L169 83v-.06a20 20 0 0 0 1.2-2.17v-.08l.09-.19q.23-.49.43-1l.12-.3.09-.22a1.56 1.56 0 0 1 .13-.4c.12-.33.23-.67.34-1a1 1 0 0 1 .09-.27c0-.09.07-.27.1-.4q.12-.43.23-.87a1.72 1.72 0 0 1 .09-.36c0-.13.05-.27.08-.4s.1-.5.15-.76.06-.26.08-.39a1.62 1.62 0 0 1 .07-.47 3.16 3.16 0 0 0 .1-.69c0-.23 0-.23.05-.35s0-.41.06-.61 0-.44.07-.66 0-.17 0-.26a4.54 4.54 0 0 1 .06-.9 1.23 1.23 0 0 0 0-.48v-1.77a3.59 3.59 0 0 0 .37-1.55z" opacity=".2" fill="url(#o)" style="isolation:isolate"/><circle cx="80.31" cy="72.1" r="12.89" transform="rotate(-83.33 80.309 72.099)" fill="url(#p)"/><ellipse cx="80.34" cy="67.77" rx="6.68" ry="7.64" transform="rotate(-83.33 80.339 67.766)" fill="#fff"/><circle cx="118.32" cy="95.61" r="12.89" fill="url(#q)"/><ellipse cx="122.62" cy="95.13" rx="6.68" ry="7.64" fill="#fff"/><circle cx="91.45" cy="88.45" r="12.89" fill="url(#r)"/><ellipse cx="91.45" cy="84.86" rx="7.64" ry="6.92" fill="#fff"/><circle cx="69.5" cy="94.01" r="12.89" fill="url(#s)"/><ellipse cx="73.79" cy="93.54" rx="6.68" ry="7.64" fill="#fff"/><circle cx="73.8" cy="118.21" r="12.89" fill="url(#t)"/><ellipse cx="71.32" cy="122.72" rx="5.94" ry="6.92" transform="rotate(-74.02 71.322 122.719)" fill="#fff"/><path d="M56.2 62.41c17.56 10.14 31.75 34.71 31.69 54.89S73.55 145.61 56 135.47s-31.76-34.71-31.7-54.89 14.34-28.31 31.9-18.17z" opacity=".2" fill="url(#j)" style="isolation:isolate"/><path d="M70.08 139.83c-4.52 0-9.49-1.49-14.61-4.45-17.33-10-31.39-34.39-31.33-54.32 0-10 3.53-17.54 9.86-21.19S48.7 57 57.47 62c17.34 10 31.4 34.39 31.34 54.33 0 10-3.53 17.54-9.86 21.19a17.54 17.54 0 0 1-8.87 2.31zm-27.2-78.64A14 14 0 0 0 35.79 63c-5.17 3-8 9.4-8.06 18.08 0 18.79 13.2 41.75 29.53 51.19 7.61 4.4 14.67 5.16 19.88 2.16s8-9.4 8.06-18.07c.05-18.79-13.2-41.75-29.54-51.2-4.55-2.64-8.9-3.97-12.78-3.97z" fill="url(#u)"/><path fill="url(#v)" d="M36.91 139.69l4.78-2.78 21.74 12.56-4.78 2.77-21.74-12.55z"/><path d="M63.87 156.92l4.77-2.77v.06L63.88 157v-.06" fill="#215c8d"/><path d="M63.88 157l4.77-2.77v.12l-4.77 2.77V157" fill="#215a8a"/><path d="M63.91 157.1l4.77-2.77v.12l-4.77 2.77v-.12" fill="#205886"/><path d="M63.93 157.21l4.77-2.77v.11l-4.7 2.78v-.11" fill="#1f5683"/><path d="M64 157.33l4.77-2.77v.11L64 157.44v-.11" fill="#1e5480"/><path d="M64 157.44l4.77-2.77v.11L64 157.55v-.11" fill="#1e527d"/><path d="M64 157.55l4.77-2.77v.11L64 157.66v-.11" fill="#1d507a"/><path d="M64 157.66l4.77-2.77v.11L64 157.76v-.11" fill="#1c4e76"/><path d="M64 157.76l4.77-2.76v.1L64 157.87v-.1" fill="#1b4c73"/><path d="M64 157.87l4.77-2.77v.1L64 158v-.1" fill="#1b4a70"/><path d="M64 158l4.77-2.77v.1L64 158.07V158" fill="#1a476d"/><path d="M64 158.07l4.77-2.77v.1L64 158.18v-.1" fill="#19456a"/><path d="M64 158.18l4.77-2.77v.11L64 158.29v-.11" fill="#184366"/><path d="M64 158.29l4.77-2.77v.11L64 158.4v-.11" fill="#184163"/><path d="M63.94 158.39l4.77-2.77v.11l-4.77 2.77v-.11" fill="#173f60"/><path d="M63.91 158.51l4.77-2.77v.12l-4.77 2.77v-.12" fill="#163d5d"/><path d="M63.87 158.63l4.77-2.77-.05.13-4.77 2.77v-.13" fill="#153b5a"/><path d="M63.82 158.75l4.77-2.75-.08.15-4.77 2.77.08-.15" fill="#153956"/><path d="M63.73 158.9l4.77-2.77a1.21 1.21 0 0 1-.14.18 1.09 1.09 0 0 1-.24.19l-4.77 2.77a1.09 1.09 0 0 0 .24-.19 1.21 1.21 0 0 0 .14-.18" fill="#143753"/><path fill="url(#w)" d="M47.88 111.71l4.77-2.78-10.96 27.98-4.78 2.78 10.97-27.98z"/><path d="M63.87 156.92a2.34 2.34 0 0 1-.27 2.16 1.42 1.42 0 0 1-1.81 0l-28-16.19a4.72 4.72 0 0 1-1.8-2.12 3.36 3.36 0 0 1-.26-2.47l14.14-36.09c.32-.82 1.15-1 2.08-.47a4.91 4.91 0 0 1 2.05 2.9zm-27-17.23l21.74 12.55-10.73-40.53-11 28" fill="url(#x)"/><path d="M68.64 154.14l-13.89-52.27v-.72l-.06-.13-.11-.2v-.06l-.13-.21-.08-.11-.09-.12-.09-.11-.07-.08L54 100l-.09-.09-.09-.09-.07-.06-.1-.09-.1-.08-.09-.07-.09-.06-.67-.46h-1.37l-.18.08-4.77 2.77a1.08 1.08 0 0 1 .33-.12 1.32 1.32 0 0 1 .37 0 1.79 1.79 0 0 1 .41.09 2.51 2.51 0 0 1 .44.2l.33.22.31.27.3.31c.09.11.19.22.27.34l.21.32v.06a3.72 3.72 0 0 1 .21.39 3.79 3.79 0 0 1 .18.42c0 .14.1.29.14.43L63.77 157a2.34 2.34 0 0 1-.27 2.16 1.08 1.08 0 0 1-.24.19l4.74-2.72a1.09 1.09 0 0 0 .24-.19 2.34 2.34 0 0 0 .4-2.3z" fill="url(#y)"/></svg>