<?xml version="1.0" encoding="utf-8"?>
<!-- Generator: Adobe Illustrator 21.0.0, SVG Export Plug-In . SVG Version: 6.00 Build 0)  -->
<svg version="1.1" id="Layer_3" xmlns="http://www.w3.org/2000/svg" xmlns:xlink="http://www.w3.org/1999/xlink" x="0px" y="0px"
	 viewBox="0 0 80.6 72.5" style="enable-background:new 0 0 80.6 72.5;" xml:space="preserve">
<style type="text/css">
	.st0{fill:url(#SVGID_1_);}
	.st1{fill:url(#SVGID_2_);}
	.st2{fill:url(#SVGID_3_);}
	.st3{fill:url(#SVGID_4_);}
	.st4{fill:url(#SVGID_5_);}
	.st5{fill:url(#SVGID_6_);}
	.st6{fill:url(#SVGID_7_);}
	.st7{fill:url(#SVGID_8_);}
	.st8{clip-path:url(#SVGID_10_);}
	.st9{fill:#445961;}
	.st10{fill:#465C64;}
	.st11{fill:#485F68;}
	.st12{fill:#4A626B;}
	.st13{fill:#4C656E;}
	.st14{fill:#4E6871;}
	.st15{fill:#516B74;}
	.st16{fill:url(#SVGID_11_);}
	.st17{fill:url(#SVGID_12_);}
	.st18{fill:url(#SVGID_13_);}
	.st19{fill:url(#SVGID_14_);}
	.st20{fill:url(#SVGID_15_);}
	.st21{fill:url(#SVGID_16_);}
	.st22{fill:url(#SVGID_17_);}
	.st23{fill:url(#SVGID_18_);}
	.st24{fill:url(#SVGID_19_);}
	.st25{fill:#3A4D54;}
	.st26{clip-path:url(#SVGID_21_);}
	.st27{fill:#55707A;}
	.st28{fill:#536D77;}
	.st29{fill:#41565E;}
	.st30{fill:#3F545B;}
	.st31{fill:#3D5158;}
	.st32{fill:#3B4E55;}
	.st33{fill:#394B52;}
	.st34{fill:url(#SVGID_22_);}
	.st35{clip-path:url(#SVGID_24_);}
	.st36{fill:url(#SVGID_25_);}
	.st37{fill:url(#SVGID_26_);}
	.st38{fill:url(#SVGID_27_);}
</style>
<title>icons_features</title>
<g>
	
		<linearGradient id="SVGID_1_" gradientUnits="userSpaceOnUse" x1="54.6394" y1="36.3719" x2="73.3594" y2="36.3719" gradientTransform="matrix(1 0 0 -1 0 74)">
		<stop  offset="0" style="stop-color:#051335"/>
		<stop  offset="5.000000e-02" style="stop-color:#0A1F43"/>
		<stop  offset="0.21" style="stop-color:#17416C"/>
		<stop  offset="0.34" style="stop-color:#1F5686"/>
		<stop  offset="0.41" style="stop-color:#225E8F"/>
		<stop  offset="0.73" style="stop-color:#3081C5"/>
		<stop  offset="1" style="stop-color:#30ADE6"/>
	</linearGradient>
	<path class="st0" d="M73.2,33.7c-0.4,4.1-6.4,5.1-9.6,5s-9-1.4-8.9-5.4c-0.1,1.3-0.1,2.7,0.1,4c0.6,2.6,3.7,3.9,6.1,4.4
		c2.3,0.5,4.7,0.5,7-0.1c2-0.5,4.4-1.6,5.2-3.7c0.5-1.3,0.2-3.1,0.2-4.5L73.2,33.7z"/>
	
		<linearGradient id="SVGID_2_" gradientUnits="userSpaceOnUse" x1="59.2271" y1="28.6311" x2="66.1371" y2="45.9711" gradientTransform="matrix(1 0 0 -1 0 74)">
		<stop  offset="0" style="stop-color:#D92522"/>
		<stop  offset="0.28" style="stop-color:#D92825"/>
		<stop  offset="0.46" style="stop-color:#D9302D"/>
		<stop  offset="0.62" style="stop-color:#D93E3C"/>
		<stop  offset="0.75" style="stop-color:#D95351"/>
		<stop  offset="0.88" style="stop-color:#D96D6C"/>
		<stop  offset="0.91" style="stop-color:#D97675"/>
	</linearGradient>
	<path class="st1" d="M70.5,29.6c3.7,2.1,3.8,5.6,0.2,7.7s-9.7,2-13.3-0.1s-3.6-5.5,0-7.6C61.5,27.4,66.4,27.4,70.5,29.6z"/>
</g>
<linearGradient id="SVGID_3_" gradientUnits="userSpaceOnUse" x1="45.41" y1="50.13" x2="162.65" y2="50.13" gradientTransform="matrix(1 0 0 -1 0 74)">
	<stop  offset="0" style="stop-color:#051335"/>
	<stop  offset="5.000000e-02" style="stop-color:#0A1F43"/>
	<stop  offset="0.21" style="stop-color:#17416C"/>
	<stop  offset="0.34" style="stop-color:#1F5686"/>
	<stop  offset="0.41" style="stop-color:#225E8F"/>
	<stop  offset="0.73" style="stop-color:#3081C5"/>
	<stop  offset="1" style="stop-color:#30ADE6"/>
</linearGradient>
<path class="st2" d="M71.1,29.5l-9.3-19.2l-4.2,19.1l-1.2,7l-0.1,0.4c0,0.3,0.1,0.5,0.4,0.6h0.1c0.2,0,0.4-0.1,0.5-0.3
	c0,0,0-0.1,0-0.1l1.4-8.1l3.4-15.2l7.6,15.5c0.2,0.1,0.5,0.3,0.8,0.4s0.4,0.3,0.6,0.4C71.2,29.8,71.2,29.7,71.1,29.5z"/>
<g>
	
		<linearGradient id="SVGID_4_" gradientUnits="userSpaceOnUse" x1="10.0894" y1="15.8519" x2="28.7994" y2="15.8519" gradientTransform="matrix(1 0 0 -1 0 74)">
		<stop  offset="0" style="stop-color:#051335"/>
		<stop  offset="5.000000e-02" style="stop-color:#0A1F43"/>
		<stop  offset="0.21" style="stop-color:#17416C"/>
		<stop  offset="0.34" style="stop-color:#1F5686"/>
		<stop  offset="0.41" style="stop-color:#225E8F"/>
		<stop  offset="0.73" style="stop-color:#3081C5"/>
		<stop  offset="1" style="stop-color:#30ADE6"/>
	</linearGradient>
	<path class="st3" d="M28.7,54.2c-0.4,4.1-6.4,5.1-9.6,5s-8.9-1.4-8.9-5.4c-0.1,1.3-0.1,2.7,0.1,4c0.6,2.6,3.7,3.9,6.1,4.4
		c2.3,0.5,4.7,0.5,7-0.1c2-0.5,4.4-1.6,5.2-3.7c0.5-1.3,0.2-3.1,0.2-4.5L28.7,54.2z"/>
	
		<linearGradient id="SVGID_5_" gradientUnits="userSpaceOnUse" x1="13.5136" y1="11.8454" x2="24.6136" y2="27.0154" gradientTransform="matrix(1 0 0 -1 0 74)">
		<stop  offset="0" style="stop-color:#D92522"/>
		<stop  offset="0.28" style="stop-color:#D92825"/>
		<stop  offset="0.46" style="stop-color:#D9302D"/>
		<stop  offset="0.62" style="stop-color:#D93E3C"/>
		<stop  offset="0.75" style="stop-color:#D95351"/>
		<stop  offset="0.88" style="stop-color:#D96D6C"/>
		<stop  offset="0.91" style="stop-color:#D97675"/>
	</linearGradient>
	<path class="st4" d="M26,50.1c3.6,2.1,3.8,5.7,0.2,7.7s-9.7,2.1-13.3,0s-3.6-5.6,0-7.7C17,48,21.9,48,26,50.1z"/>
</g>
<linearGradient id="SVGID_6_" gradientUnits="userSpaceOnUse" x1="0.87" y1="29.27" x2="118.1" y2="29.27" gradientTransform="matrix(1 0 0 -1 0 74)">
	<stop  offset="0" style="stop-color:#051335"/>
	<stop  offset="5.000000e-02" style="stop-color:#0A1F43"/>
	<stop  offset="0.21" style="stop-color:#17416C"/>
	<stop  offset="0.34" style="stop-color:#1F5686"/>
	<stop  offset="0.41" style="stop-color:#225E8F"/>
	<stop  offset="0.73" style="stop-color:#3081C5"/>
	<stop  offset="1" style="stop-color:#30ADE6"/>
</linearGradient>
<path class="st5" d="M26.6,50.1l-8.3-18.5l-6.3,25.4l-0.1,0.4c0,0.3,0.1,0.5,0.4,0.6h0.1c0.2,0,0.4-0.1,0.5-0.3c0,0,0-0.1,0-0.1
	l5.8-22l6.6,14.2c0.2,0.1,0.5,0.3,0.8,0.4s0.4,0.3,0.6,0.4C26.7,50.4,26.7,50.2,26.6,50.1z"/>
<g>
	
		<linearGradient id="SVGID_7_" gradientUnits="userSpaceOnUse" x1="38.2" y1="18.5703" x2="51.78" y2="18.5703" gradientTransform="matrix(1 0 0 -1 0 74)">
		<stop  offset="0" style="stop-color:#0A0E1B"/>
		<stop  offset="1" style="stop-color:#1B264A"/>
	</linearGradient>
	<path class="st6" d="M51,55c0.3,0,0.5,0,0.8,0.1c-1.4-0.8-2.7-1.6-4.1-2.4c-0.9-0.5-1.5-0.9-2.5-0.8c-0.4,0.1-0.7,0.3-1.1,0.5
		c-0.8,0.5-1.7,1-2.5,1.5c-1.1,0.6-2.2,1.3-3.3,1.9c1.1,0.7,2.3,1.3,3.4,2c0.5,0.3,1.1,0.8,1.7,1c0.5,0.1,0.6-0.1,1.1-0.4
		c1-0.6,2-1.1,3-1.7C48.4,56.2,50.2,55.4,51,55z"/>
	
		<linearGradient id="SVGID_8_" gradientUnits="userSpaceOnUse" x1="28.82" y1="13.4603" x2="44.23" y2="13.4603" gradientTransform="matrix(1 0 0 -1 0 74)">
		<stop  offset="0" style="stop-color:#1B264A"/>
		<stop  offset="1" style="stop-color:#0A0E1B"/>
	</linearGradient>
	<path class="st7" d="M38.2,64.4c0.5-2.9,3.1-4,5.4-5.3c0,0-4.3-2.8-5.3-3.1c-0.1,0-1.1,0.6-1.4,0.8c-1.4,0.8-2.7,1.5-3.5,3
		c-0.4,0.6-0.6,1.4-0.6,2.2c-0.1,0,5.4,3.3,5.4,3.3C38.1,64.9,38.1,64.6,38.2,64.4z"/>
</g>
<g>
	<g>
		<g>
			<defs>
				<path id="SVGID_9_" d="M63.4,12.3L58,9.2c0.1,0.1,0.2,0.1,0.3,0.1l5.4,3.1C63.6,12.4,63.5,12.4,63.4,12.3z"/>
			</defs>
			<clipPath id="SVGID_10_">
				<use xlink:href="#SVGID_9_"  style="overflow:visible;"/>
			</clipPath>
			<g class="st8">
				<g>
					<polyline class="st9" points="63.4,12.3 58,9.2 58.1,9.2 63.4,12.3 63.4,12.3 					"/>
					<path class="st10" d="M63.4,12.3l-5.3-3.1h0L63.4,12.3L63.4,12.3"/>
					<path class="st11" d="M63.5,12.4l-5.4-3.1h0.1L63.5,12.4L63.5,12.4"/>
					<path class="st12" d="M63.5,12.4l-5.4-3.1h0.1L63.5,12.4L63.5,12.4"/>
					<path class="st13" d="M63.6,12.4l-5.4-3.1h0.1L63.6,12.4L63.6,12.4"/>
					<path class="st14" d="M63.7,12.4l-5.4-3.1h0.1L63.7,12.4L63.7,12.4"/>
					<path class="st15" d="M63.7,12.4l-5.4-3.1l0,0L63.7,12.4L63.7,12.4"/>
				</g>
			</g>
		</g>
	</g>
	
		<linearGradient id="SVGID_11_" gradientUnits="userSpaceOnUse" x1="60.7607" y1="63.9882" x2="63.2207" y2="67.8182" gradientTransform="matrix(1 0 0 -1 0 74)">
		<stop  offset="0" style="stop-color:#051335"/>
		<stop  offset="4.000000e-02" style="stop-color:#0A1F43"/>
		<stop  offset="0.15" style="stop-color:#17416C"/>
		<stop  offset="0.24" style="stop-color:#1F5686"/>
		<stop  offset="0.29" style="stop-color:#225E8F"/>
		<stop  offset="0.62" style="stop-color:#3081C5"/>
		<stop  offset="0.84" style="stop-color:#30ADE6"/>
		<stop  offset="1" style="stop-color:#7ECCF0"/>
	</linearGradient>
	<path class="st16" d="M64.6,9.6h0.2L65,9.7l0,0l-5.4-3.1l0,0h0h-0.1h-0.3h-0.1H59l0,0l-0.2,0.1c-0.1,0.1-0.3,0.2-0.4,0.3l0,0l0,0
		L58.3,7l-0.1,0.1l-0.1,0.1l-0.1,0.1l0,0l0,0l0,0L58,7.5v0.1v0.1v0.1v0.1l0,0V8v0.1c0,0.1,0,0.1,0,0.1c0,0.1,0,0.1,0,0.1
		s0,0.1,0,0.1c0,0.3,0.1,0.5,0.3,0.7l5.4,3.1c-0.2-0.2-0.3-0.4-0.3-0.7c0,0,0-0.1,0-0.1c-0.1-0.2-0.1-0.3-0.2-0.5l0,0
		c0.1-0.2,0.1-0.3,0.2-0.5l0,0c0.1-0.2,0.2-0.3,0.3-0.4l0,0c0.1-0.1,0.3-0.2,0.4-0.3l0.2-0.1l0,0L64.6,9.6z"/>
	
		<linearGradient id="SVGID_12_" gradientUnits="userSpaceOnUse" x1="40.815" y1="14.97" x2="40.815" y2="50.66" gradientTransform="matrix(1 0 0 -1 0 74)">
		<stop  offset="0" style="stop-color:#1B264A"/>
		<stop  offset="1" style="stop-color:#0A0E1B"/>
	</linearGradient>
	<polygon class="st17" points="43.5,38 43.4,26.5 38.1,23.3 38.1,34.8 38.2,55.9 43.5,59 	"/>
	
		<linearGradient id="SVGID_13_" gradientUnits="userSpaceOnUse" x1="47.9315" y1="32.2837" x2="35.9515" y2="4.4237" gradientTransform="matrix(1 0 0 -1 0 74)">
		<stop  offset="0" style="stop-color:#30ADE6"/>
		<stop  offset="0.27" style="stop-color:#3081C5"/>
		<stop  offset="0.59" style="stop-color:#225E8F"/>
		<stop  offset="0.66" style="stop-color:#1F5686"/>
		<stop  offset="0.79" style="stop-color:#17416C"/>
		<stop  offset="0.95" style="stop-color:#0A1F43"/>
		<stop  offset="1" style="stop-color:#051335"/>
	</linearGradient>
	<path class="st18" d="M52.5,56.7c0-1.6-1.1-2.2-2.5-1.4L45.3,58l-0.1-21.1l-0.1-11.5c-0.3,0.3-0.6,0.5-0.9,0.7
		c-0.3,0.2-0.6,0.3-0.9,0.3l0.1,11.5L43.5,59l0,0l-3,1.7c-1.5,1-2.4,2.6-2.4,4.3v0.2l14.4-8.3V56.7z"/>
	
		<linearGradient id="SVGID_14_" gradientUnits="userSpaceOnUse" x1="39.83" y1="59.66" x2="63.1" y2="59.66" gradientTransform="matrix(1 0 0 -1 0 74)">
		<stop  offset="0" style="stop-color:#30ADE6"/>
		<stop  offset="0.12" style="stop-color:#39B1E7"/>
		<stop  offset="0.31" style="stop-color:#53BBEA"/>
		<stop  offset="0.56" style="stop-color:#7CCBEF"/>
		<stop  offset="0.85" style="stop-color:#B5E2F6"/>
		<stop  offset="1" style="stop-color:#D4EEFA"/>
	</linearGradient>
	<polygon class="st19" points="45.2,20.3 39.8,17.1 57.7,8.4 63.1,11.5 	"/>
	
		<linearGradient id="SVGID_15_" gradientUnits="userSpaceOnUse" x1="45.6" y1="56.075" x2="64.34" y2="56.075" gradientTransform="matrix(1 0 0 -1 0 74)">
		<stop  offset="0" style="stop-color:#051335"/>
		<stop  offset="4.000000e-02" style="stop-color:#0A1F43"/>
		<stop  offset="0.15" style="stop-color:#17416C"/>
		<stop  offset="0.24" style="stop-color:#1F5686"/>
		<stop  offset="0.29" style="stop-color:#225E8F"/>
		<stop  offset="0.62" style="stop-color:#3081C5"/>
		<stop  offset="0.84" style="stop-color:#30ADE6"/>
		<stop  offset="1" style="stop-color:#7ECCF0"/>
	</linearGradient>
	<path class="st20" d="M63.1,11.6c0,0.5,0.3,0.8,0.7,0.8l0.6-0.3L46,24.3c0.5-0.8,0.7-1.6,0.8-2.5c0-1-0.5-1.7-1.2-1.8l0,0l17.5-8.5
		C63.1,11.5,63.1,11.6,63.1,11.6z"/>
	
		<linearGradient id="SVGID_16_" gradientUnits="userSpaceOnUse" x1="50.4" y1="47.96" x2="50.87" y2="47.96" gradientTransform="matrix(1 0 0 -1 0 74)">
		<stop  offset="0" style="stop-color:#30ADE6"/>
		<stop  offset="0.12" style="stop-color:#39B1E7"/>
		<stop  offset="0.31" style="stop-color:#53BBEA"/>
		<stop  offset="0.56" style="stop-color:#7CCBEF"/>
		<stop  offset="0.85" style="stop-color:#B5E2F6"/>
		<stop  offset="1" style="stop-color:#D4EEFA"/>
	</linearGradient>
	<path class="st21" d="M38.9,17.3c-0.3,0.2-0.6,0.4-0.8,0.6C38,18,17.4,31.7,17.4,31.7l5.4,3.1l19.1-12.4l0.8-0.5l0,0l0.1-0.1
		l0.2-0.2l0.2-0.2l0.3-0.3l0.2-0.1c0.2-0.2,0.4-0.4,0.7-0.5L38.9,17.3z"/>
	
		<linearGradient id="SVGID_17_" gradientUnits="userSpaceOnUse" x1="40.4939" y1="55.196" x2="42.4681" y2="58.507" gradientTransform="matrix(1 0 0 -1 0 74)">
		<stop  offset="0" style="stop-color:#051335"/>
		<stop  offset="9.000000e-02" style="stop-color:#0A1F43"/>
		<stop  offset="0.38" style="stop-color:#17416C"/>
		<stop  offset="0.61" style="stop-color:#1F5686"/>
		<stop  offset="0.75" style="stop-color:#225E8F"/>
		<stop  offset="0.9" style="stop-color:#30ADE6"/>
		<stop  offset="1" style="stop-color:#7ECCF0"/>
	</linearGradient>
	<path class="st22" d="M44.5,17.1L39.2,14H39l0,0h0l-0.1,0.1l0,0l0,0l0,0l0,0l0,0l0,0v0.2l0,0l-0.3,3.2l5.4,3.1l0.3-3.2
		c0-0.1,0.1-0.2,0.1-0.3l0,0C44.4,17,44.5,17.1,44.5,17.1z"/>
	
		<linearGradient id="SVGID_18_" gradientUnits="userSpaceOnUse" x1="41.8" y1="50.7697" x2="46.8" y2="50.7697" gradientTransform="matrix(1 0 0 -1 0 74)">
		<stop  offset="0" style="stop-color:#D92522"/>
		<stop  offset="0.18" style="stop-color:#D92A27"/>
		<stop  offset="0.4" style="stop-color:#D93936"/>
		<stop  offset="0.64" style="stop-color:#D9514F"/>
		<stop  offset="0.89" style="stop-color:#D97372"/>
		<stop  offset="0.91" style="stop-color:#D97675"/>
	</linearGradient>
	<path class="st23" d="M45.6,20.1c-0.2,0-0.4,0-0.6,0l-0.3,0.1l-0.4,0.2c-0.2,0.1-0.5,0.3-0.7,0.5c-0.3,0.3-0.6,0.6-0.9,1
		c-0.6,0.8-0.9,1.8-0.9,2.8c0,0.6,0.2,1.1,0.6,1.5c0.3,0.2,0.6,0.3,1,0.2c0.3-0.1,0.6-0.2,0.9-0.3c0.3-0.2,0.6-0.4,0.9-0.7
		c0.3-0.3,0.6-0.7,0.9-1.1c0.5-0.8,0.7-1.6,0.8-2.5C46.8,20.8,46.3,20.1,45.6,20.1z"/>
	
		<linearGradient id="SVGID_19_" gradientUnits="userSpaceOnUse" x1="43.59" y1="55.0089" x2="44.98" y2="55.0089" gradientTransform="matrix(1 0 0 -1 0 74)">
		<stop  offset="0" style="stop-color:#D92522"/>
		<stop  offset="0.18" style="stop-color:#D92A27"/>
		<stop  offset="0.4" style="stop-color:#D93936"/>
		<stop  offset="0.64" style="stop-color:#D9514F"/>
		<stop  offset="0.89" style="stop-color:#D97372"/>
		<stop  offset="0.91" style="stop-color:#D97675"/>
	</linearGradient>
	<path class="st24" d="M44.6,20.2l0.4-0.1l-0.4-2.8c0-0.2-0.2-0.2-0.3-0.1c-0.2,0.1-0.3,0.3-0.3,0.5l-0.3,3.2
		c0.2-0.2,0.4-0.4,0.7-0.5L44.6,20.2z"/>
	<polygon class="st25" points="22.1,36.5 16.8,33.4 16.8,33.3 22.1,36.4 	"/>
	<g>
		<g>
			<defs>
				<path id="SVGID_20_" d="M17.4,31.8l5.4,3.1c0,0.6-0.3,1.1-0.6,1.5l-5.4-3.1C17.2,32.9,17.4,32.3,17.4,31.8z"/>
			</defs>
			<clipPath id="SVGID_21_">
				<use xlink:href="#SVGID_20_"  style="overflow:visible;"/>
			</clipPath>
			<g class="st26">
				<g>
					<path class="st27" d="M22.1,36.4l-5.4-3.1l0,0L22.1,36.4L22.1,36.4"/>
					<path class="st28" d="M22.2,36.4l-5.4-3.1l0.1-0.1l5.4,3.1L22.2,36.4"/>
					<path class="st15" d="M22.3,36.3l-5.4-3.1L17,33l5.4,3.1L22.3,36.3"/>
					<path class="st14" d="M22.4,36.2L17,33l0.1-0.1l5.4,3.1L22.4,36.2"/>
					<path class="st13" d="M22.4,36.1L17.1,33l0.1-0.1L22.4,36.1L22.4,36.1"/>
					<path class="st12" d="M22.5,36l-5.4-3.1l0-0.1L22.5,36L22.5,36"/>
					<path class="st11" d="M22.5,35.9l-5.4-3.1v-0.1L22.5,35.9L22.5,35.9"/>
					<path class="st10" d="M22.6,35.8l-5.4-3.1v-0.1L22.6,35.8L22.6,35.8"/>
					<path class="st9" d="M22.6,35.7l-5.4-3.1v-0.1L22.6,35.7L22.6,35.7"/>
					<path class="st29" d="M22.7,35.6l-5.4-3.1v-0.1L22.7,35.6L22.7,35.6"/>
					<path class="st30" d="M22.7,35.5l-5.4-3.1v-0.1l5.4,3.1V35.5"/>
					<path class="st31" d="M22.7,35.4l-5.4-3.1v-0.1l5.4,3.1V35.4"/>
					<path class="st32" d="M22.8,35.3l-5.4-3.1c0-0.1,0-0.1,0-0.1l5.4,3.1C22.8,35.2,22.8,35.2,22.8,35.3"/>
					<path class="st33" d="M22.8,35.1L17.4,32c0-0.1,0-0.1,0-0.2l5.4,3.1C22.8,35,22.8,35,22.8,35.1"/>
				</g>
			</g>
		</g>
	</g>
	
		<linearGradient id="SVGID_22_" gradientUnits="userSpaceOnUse" x1="22.1718" y1="42.3622" x2="56.8018" y2="50.4822" gradientTransform="matrix(1 0 0 -1 0 74)">
		<stop  offset="0" style="stop-color:#051335"/>
		<stop  offset="4.000000e-02" style="stop-color:#0A1F43"/>
		<stop  offset="0.15" style="stop-color:#17416C"/>
		<stop  offset="0.24" style="stop-color:#1F5686"/>
		<stop  offset="0.29" style="stop-color:#225E8F"/>
		<stop  offset="0.62" style="stop-color:#3081C5"/>
		<stop  offset="0.84" style="stop-color:#30ADE6"/>
		<stop  offset="0.88" style="stop-color:#33AEE6"/>
		<stop  offset="0.92" style="stop-color:#3CB2E8"/>
		<stop  offset="0.95" style="stop-color:#4CB8EA"/>
		<stop  offset="0.98" style="stop-color:#63C1ED"/>
		<stop  offset="1" style="stop-color:#7ECCF0"/>
	</linearGradient>
	<path class="st34" d="M42.4,22.6c0.1-0.2,0.2-0.4,0.4-0.6l0,0l-0.8,0.5L22.8,34.8c0,0,0,0.1,0,0.1c0,0.6-0.3,1.1-0.6,1.5l-0.4,0.2
		l20.6-10.4c-0.4-0.4-0.7-0.9-0.6-1.5C41.8,24,42,23.3,42.4,22.6L42.4,22.6z"/>
	<g>
		<g>
			<defs>
				<path id="SVGID_23_" d="M22.8,34.9l-5.4-3.1c0,0,0-0.1,0-0.1L22.8,34.9C22.8,34.8,22.8,34.9,22.8,34.9z"/>
			</defs>
			<clipPath id="SVGID_24_">
				<use xlink:href="#SVGID_23_"  style="overflow:visible;"/>
			</clipPath>
			<g class="st35">
				<g>
					<path class="st33" d="M22.8,34.9l-5.4-3.1c0,0,0-0.1,0-0.1L22.8,34.9C22.8,34.8,22.8,34.9,22.8,34.9"/>
				</g>
			</g>
		</g>
	</g>
	
		<linearGradient id="SVGID_25_" gradientUnits="userSpaceOnUse" x1="18.2179" y1="39.0823" x2="19.6479" y2="42.0723" gradientTransform="matrix(1 0 0 -1 0 74)">
		<stop  offset="0" style="stop-color:#051335"/>
		<stop  offset="4.000000e-02" style="stop-color:#0A1F43"/>
		<stop  offset="0.15" style="stop-color:#17416C"/>
		<stop  offset="0.24" style="stop-color:#1F5686"/>
		<stop  offset="0.29" style="stop-color:#225E8F"/>
		<stop  offset="0.62" style="stop-color:#3081C5"/>
		<stop  offset="0.84" style="stop-color:#30ADE6"/>
		<stop  offset="1" style="stop-color:#7ECCF0"/>
	</linearGradient>
	<path class="st36" d="M20.7,35.6c0.1-0.2,0.1-0.4,0.2-0.5l0,0c0.1-0.2,0.2-0.3,0.3-0.5l0,0c0.1-0.1,0.3-0.2,0.4-0.3l0.2-0.1l0,0
		h0.2h0.2l0.2,0.1l-5.4-3.1l0,0h0l0-0.1h-0.3h-0.1h-0.1l0,0l-0.1,0.1c-0.1,0.1-0.3,0.2-0.4,0.3v0l0,0L16,31.5l-0.1,0.1l-0.1,0.1
		l-0.1,0.1l-0.1,0.1l0,0v0.1V32v0.1v0.1v0.1v0.1l0,0l0,0v0.1c0,0.1,0,0.1,0,0.2c0,0.1,0,0.1,0,0.2c0,0.3,0.1,0.5,0.3,0.7l5.4,3.1
		C21.1,36.5,21,36.3,21,36c0-0.2,0-0.4,0.1-0.5L20.7,35.6z"/>
	
		<linearGradient id="SVGID_26_" gradientUnits="userSpaceOnUse" x1="20.62" y1="38.4735" x2="22.8" y2="38.4735" gradientTransform="matrix(1 0 0 -1 0 74)">
		<stop  offset="0" style="stop-color:#051335"/>
		<stop  offset="5.000000e-02" style="stop-color:#0A1F43"/>
		<stop  offset="0.21" style="stop-color:#17416C"/>
		<stop  offset="0.34" style="stop-color:#1F5686"/>
		<stop  offset="0.41" style="stop-color:#225E8F"/>
		<stop  offset="0.73" style="stop-color:#3081C5"/>
		<stop  offset="1" style="stop-color:#30ADE6"/>
	</linearGradient>
	<path class="st37" d="M21.7,34.3c0.6-0.3,1-0.1,1.1,0.5c0,0,0,0.1,0,0.1c0,0.6-0.3,1.1-0.6,1.5c-0.1,0.1-0.3,0.3-0.4,0.4
		c-0.6,0.3-1.1,0.1-1.1-0.6C20.6,35.4,21.1,34.7,21.7,34.3z"/>
	
		<linearGradient id="SVGID_27_" gradientUnits="userSpaceOnUse" x1="63.09" y1="63.0005" x2="65.28" y2="63.0005" gradientTransform="matrix(1 0 0 -1 0 74)">
		<stop  offset="0" style="stop-color:#051335"/>
		<stop  offset="5.000000e-02" style="stop-color:#0A1F43"/>
		<stop  offset="0.21" style="stop-color:#17416C"/>
		<stop  offset="0.34" style="stop-color:#1F5686"/>
		<stop  offset="0.41" style="stop-color:#225E8F"/>
		<stop  offset="0.73" style="stop-color:#3081C5"/>
		<stop  offset="1" style="stop-color:#30ADE6"/>
	</linearGradient>
	<path class="st38" d="M64.2,9.8c0.6-0.4,1.1-0.1,1.1,0.6c0,0.8-0.4,1.5-1.1,1.9c-0.1,0.1-0.3,0.1-0.4,0.1c-0.4,0-0.7-0.3-0.7-0.8
		c0,0,0-0.1,0-0.1C63.2,10.8,63.6,10.2,64.2,9.8z"/>
</g>
</svg>
