<svg data-name="casino" xmlns="http://www.w3.org/2000/svg" xmlns:xlink="http://www.w3.org/1999/xlink" viewBox="0 0 200 168"><defs><style>.cls-8{fill:none}</style><linearGradient id="linear-gradient" x1="150.07" y1="52.58" x2="172.88" y2="52.58" gradientUnits="userSpaceOnUse"><stop offset="0" stop-color="#051335"/><stop offset=".05" stop-color="#0a1f43"/><stop offset=".21" stop-color="#17416c"/><stop offset=".34" stop-color="#1f5686"/><stop offset=".41" stop-color="#225e8f"/><stop offset=".73" stop-color="#3081c5"/><stop offset="1" stop-color="#30ade6"/></linearGradient><radialGradient id="radial-gradient" cx="172.2" cy="28.91" r="4.76" gradientUnits="userSpaceOnUse"><stop offset=".05" stop-color="#fcbdbd"/><stop offset="1" stop-color="#d92522"/></radialGradient><linearGradient id="linear-gradient-2" x1="24.2" y1="83.18" x2="175.93" y2="83.18" gradientUnits="userSpaceOnUse"><stop offset="0" stop-color="#30ade6"/><stop offset=".12" stop-color="#39b1e7"/><stop offset=".31" stop-color="#53bbea"/><stop offset=".56" stop-color="#7ccbef"/><stop offset=".85" stop-color="#b5e2f6"/><stop offset="1" stop-color="#d4eefa"/></linearGradient><linearGradient id="linear-gradient-3" x1="44.53" y1="159.45" x2="184.07" y2="97.03" xlink:href="#linear-gradient"/><linearGradient id="linear-gradient-4" x1="47.82" y1="103.67" x2="64.96" y2="102.31" xlink:href="#linear-gradient-2"/><linearGradient id="linear-gradient-5" x1="113.09" y1="122.73" x2="61.34" y2="38.13" gradientUnits="userSpaceOnUse"><stop offset="0" stop-color="#b6e2f6" stop-opacity="0"/><stop offset=".28" stop-color="#7c9bad" stop-opacity=".3"/><stop offset=".63" stop-color="#0b0f1d" stop-opacity=".9"/></linearGradient><linearGradient id="linear-gradient-6" x1="117.77" y1="64.45" x2="141.15" y2="107.17" gradientTransform="rotate(-.23 -3262.88 -1488.77)" gradientUnits="userSpaceOnUse"><stop offset="0" stop-color="#30ade6"/><stop offset=".07" stop-color="#59bdeb"/><stop offset=".23" stop-color="#c1e6f8"/><stop offset=".26" stop-color="#d4eefa"/><stop offset="1" stop-color="#30ade6"/></linearGradient><linearGradient id="linear-gradient-7" x1="123.14" y1="107.98" x2="117.47" y2="75" gradientTransform="rotate(.25 4179.783 -242.886)" gradientUnits="userSpaceOnUse"><stop offset="0" stop-color="#30ade6"/><stop offset=".27" stop-color="#3081c5"/><stop offset=".59" stop-color="#225e8f"/><stop offset=".66" stop-color="#1f5686"/><stop offset=".79" stop-color="#17416c"/><stop offset=".95" stop-color="#0a1f43"/><stop offset="1" stop-color="#051335"/></linearGradient><linearGradient id="linear-gradient-8" x1="160.88" y1="161.52" x2="164.28" y2="188" gradientTransform="matrix(.89 -.49 0 1 -7.25 -32.76)" gradientUnits="userSpaceOnUse"><stop offset="0" stop-color="#d92522"/><stop offset=".4" stop-color="#fab5b5"/><stop offset=".44" stop-color="#fcbdbd"/><stop offset=".45" stop-color="#f8adad"/><stop offset="1" stop-color="#d92522"/></linearGradient><linearGradient id="linear-gradient-9" x1="119.63" y1="52.7" x2="128.99" y2="69.8" gradientTransform="rotate(-.23 -3262.88 -1488.77)" gradientUnits="userSpaceOnUse"><stop offset=".31" stop-color="#0b0f1d" stop-opacity=".5"/><stop offset=".36" stop-color="#2b3746" stop-opacity=".41"/><stop offset=".62" stop-color="#95b9cc" stop-opacity=".1"/><stop offset="1" stop-color="#b6e2f6" stop-opacity="0"/></linearGradient><linearGradient id="linear-gradient-10" x1="88.64" y1="81.17" x2="112.02" y2="123.89" xlink:href="#linear-gradient-6"/><linearGradient id="linear-gradient-11" x1="94.15" y1="124.95" x2="88.48" y2="91.96" xlink:href="#linear-gradient-7"/><linearGradient id="linear-gradient-12" x1="128.31" y1="162.54" x2="131.72" y2="189.02" xlink:href="#linear-gradient-8"/><linearGradient id="linear-gradient-13" x1="90.51" y1="69.42" x2="99.86" y2="86.52" xlink:href="#linear-gradient-9"/><linearGradient id="linear-gradient-14" x1="59.04" y1="98.18" x2="82.43" y2="140.9" xlink:href="#linear-gradient-6"/><linearGradient id="linear-gradient-15" x1="64.7" y1="142.21" x2="59.03" y2="109.22" xlink:href="#linear-gradient-7"/><linearGradient id="linear-gradient-16" x1="95.22" y1="163.58" x2="98.63" y2="190.06" xlink:href="#linear-gradient-8"/><linearGradient id="linear-gradient-17" x1="60.91" y1="86.43" x2="70.26" y2="103.53" xlink:href="#linear-gradient-9"/><linearGradient id="linear-gradient-18" x1="5.92" y1="84.97" x2="153.76" y2="18.83" xlink:href="#linear-gradient"/><linearGradient id="linear-gradient-19" x1="24.07" y1="112.63" x2="71.28" y2="112.63" gradientUnits="userSpaceOnUse"><stop offset="0" stop-color="#1b264a"/><stop offset="1" stop-color="#0a0e1b"/></linearGradient></defs><path d="M170.88 35v26.17a7 7 0 0 1-11 5.73l-8.61-6.07" stroke-miterlimit="10" stroke-width="4" stroke="url(#linear-gradient)" fill="none"/><circle cx="170.88" cy="30.22" r="4.75" fill="url(#radial-gradient)"/><path d="M159.5 78.09q-.36-.25-.72-.54l-.08-.06q-.34-.28-.67-.59l-.08-.07q-.33-.32-.66-.66l-.05-.06q-.34-.37-.67-.76-.33-.4-.64-.82c-.19-.26-.37-.52-.55-.79l-.32-.5-.27-.43-.11-.2c-.14-.24-.27-.49-.4-.74v-.08q-.23-.45-.43-.91v-.05q-.2-.45-.37-.91v-.06q-.17-.47-.32-.94v-.06q-.14-.45-.24-.91v-.09c-.07-.31-.13-.62-.18-.93 0-.31-.09-.62-.11-.93v-.08-.91l.12-31.81v-1V31.07a84.33 84.33 0 0 1-8.06-7.12c-1.05-.7-2.06-1.46-3.06-2.24l-.1-.07a17.65 17.65 0 0 1-3.75-2.22Q117 30.81 96.47 42.39q-19.38 11-38.7 22c-4.89 2.8-9.76 5.76-14.69 8.66l.08.14.09.16c.09.16.18.31.25.46q.6 1.2 1.14 2.41.51 1.15.95 2.31l.08.23q.41 1.09.76 2.17l.09.28q.34 1.07.62 2.14l.07.29q.27 1.06.49 2.12l.06.27c.14.71 0 6.13 0 6.84l.59 31.76V126.14q0 .2.06.4 0 .19.06.37t.08.41V127.73l.11.42.09.31v.12l.13.41.14.4v.14l.1.25.15.38.12.28v.05l.17.38.2.42v.14l.17.33.23.41.12.21v.08l.22.35.32.5.05.08q.24.36.5.71l.35.46.29.36.31.36.31.34.05.05.06.06.22.23.33.33.1.1.08.07.16.15.35.31.16.13.08.06.12.1.35.26.25.18.34.22.33.2h.08L71.18 147l104.75-59.31z" fill="url(#linear-gradient-2)"/><path fill="url(#linear-gradient-3)" d="M71.18 146.96l104.75-59.27-.05 13.57-104.75 59.27.05-13.57z"/><path d="M62.21 113c1.22-11.74 2.81-23.36 4.44-35-4.15 2.2-8.28 4.52-12.38 6.87a7.5 7.5 0 0 1-4.05 1l-.67 2.6a152.55 152.55 0 0 0-3 17.26c-1.33 9.71-.77 12.55-2.55 22.11.24 0 11.43.34 13-1.45 1.74-2 3.2-9.36 5-11.29.07-.75.14-1.44.21-2.1z" opacity=".57" fill="url(#linear-gradient-4)"/><path d="M127.3 48.9c-3.3-14.65-21.3 11.89-18.55-2.11q1.25-6.29 2.31-12.62-7.3 4.11-14.59 8.22-19.38 11-38.7 22c-4.89 2.8-9.76 5.76-14.69 8.66l.08.14.09.16c.09.16.18.31.25.46q.6 1.2 1.14 2.41.51 1.15.95 2.31l.08.23q.41 1.09.76 2.17l.09.28q.34 1.07.62 2.14l.08.29q.27 1.06.49 2.12c0 .09.63 42 .63 42v1.63q0 .2.06.4 0 .19.06.37t.08.41V130.98l.11.42.09.31v.12l.13.41.14.4v.14l.1.25.15.38.12.28v.05l.17.38.2.42v.14l.17.33c0 .08 13.92 5.2 14 5.28 8.7-5.9 88.37-67.8 88.37-67.8S127.63 50.35 127.3 48.9z" opacity=".63" fill="url(#linear-gradient-5)"/><g class="cls-7"><path class="cls-8" d="M119.23 55.63c.52.71 1 1.43 1.49 2.17-.48-.74-.97-1.46-1.49-2.17zM118.28 54.36l-.8-1q.91 1.1 1.75 2.26c-.31-.42-.63-.84-.95-1.26zM121.59 59.18c.24.39.48.77.71 1.17-.23-.35-.47-.78-.71-1.17zM127.21 72l-.24-.84q.36 1.23.65 2.48c-.13-.55-.26-1.1-.41-1.64zM122.61 60.91c.37.66.73 1.33 1.08 2-.34-.66-.69-1.33-1.08-2zM126.53 69.74c-.14-.44-.3-.87-.45-1.31q.46 1.27.85 2.57c-.13-.42-.26-.84-.4-1.26zM124.44 64.46c-.2-.44-.42-.88-.63-1.31q.62 1.23 1.16 2.5-.26-.6-.53-1.19zM125.34 66.54l-.32-.75q.53 1.23 1 2.49c-.22-.59-.44-1.17-.68-1.74zM116.62 52.35q-.48-.55-1-1.08.94 1 1.81 2.07zM128.51 79.68v-.48c.06.83.1 1.66.09 2.49q-.03-1.01-.09-2.01zM124.63 93.54a10.86 10.86 0 0 1-.81.78 10.84 10.84 0 0 0 .81-.78zM128.36 84.85q0-.29.06-.59-.11 1-.3 2c.09-.47.17-.94.24-1.41zM128.54 82.79v-1.1q0 1.18-.12 2.36c.06-.42.1-.83.12-1.26zM128 86.93l.08-.4c-.13.6-.28 1.2-.47 1.79.13-.47.26-.92.39-1.39zM126.79 90.38c-.14.29-.57 1.09-.85 1.51a13.61 13.61 0 0 0 .85-1.51zM125 93.18a11.91 11.91 0 0 0 .84-1.1 11.93 11.93 0 0 1-.84 1.1zM122.22 95.48a10.32 10.32 0 0 0 1.25-.86 10.34 10.34 0 0 1-1.25.86zM127.49 88.63a15.8 15.8 0 0 1-.61 1.54 15.7 15.7 0 0 0 .61-1.54zM128.32 77.57q-.07-.56-.15-1.11.19 1.26.3 2.54c-.05-.48-.09-1-.15-1.43zM127.76 74.27l-.09-.4c.19.84.35 1.69.49 2.54q-.16-1.07-.4-2.14z"/><path d="M153.7 66.12c-.28-11.26-6.05-22.54-13.86-30.46-.75-.76-.61-.72-1.4-.26s-23.93 13.68-24.2 14.06-.23 0 .13.49c.89 1.09 2 2.05 2.88 3.14a52.19 52.19 0 0 1 4.93 7 46.74 46.74 0 0 1 6 16.31c.81 5.24.71 11.48-2.56 15.93a11.21 11.21 0 0 1-3.38 3.11c5.11-2.94 18.48-10.77 24.66-14.32 5.35-3.05 6.94-9.12 6.8-15z" fill="url(#linear-gradient-6)"/><path d="M114.09 49.71l-.2 46.94c8.46 1.58 14.6-4.1 14.68-15S122.58 58 114.09 49.71z" fill="url(#linear-gradient-7)"/></g><path d="M136.41 80.66l3-22.21c-.12.13-1.67.86-2.38 1.24l-6.39 3.14-1.93-3.55 15.08-8.21 1.75 3.88-3.43 22.69z" fill="url(#linear-gradient-8)"/><path d="M117.25 53.08q.66.79 1.28 1.61c8.42-4.93 16.94-9.62 25.64-14a50.48 50.48 0 0 0-4.33-5c-.75-.76-.61-.72-1.4-.26s-23.93 13.68-24.2 14.06-.23 0 .13.49c.89 1.02 1.97 2.02 2.88 3.1z" fill="url(#linear-gradient-9)"/><g class="cls-7"><path class="cls-8" d="M90.17 72.46zM89.22 71.2l-.8-1q.91 1.1 1.75 2.26c-.32-.46-.63-.85-.95-1.26zM92.52 76c.24.39.48.77.71 1.17-.23-.38-.47-.76-.71-1.17zM98.15 88.84l-.24-.84q.36 1.23.65 2.48c-.13-.55-.26-1.1-.41-1.64zM93.55 77.75zM97.47 86.58c-.14-.44-.3-.87-.45-1.31q.46 1.27.85 2.57c-.13-.42-.26-.84-.4-1.26zM95.38 81.3c-.2-.44-.42-.88-.63-1.31q.62 1.23 1.16 2.5-.26-.6-.53-1.19zM96.28 83.37l-.28-.75q.53 1.23 1 2.49c-.26-.58-.48-1.16-.72-1.74zM87.56 69.19q-.48-.55-1-1.08.94 1 1.81 2.07zM99.45 96.51v-.48c.06.83.1 1.66.09 2.49q-.03-1-.09-2.01zM95.57 110.38a10.86 10.86 0 0 1-.81.78 10.84 10.84 0 0 0 .81-.78zM99.29 101.68q0-.29.06-.59-.11 1-.3 2c.1-.46.18-.93.24-1.41zM99.47 99.63v-1.1q0 1.18-.12 2.36c.07-.42.1-.84.12-1.26zM98.92 103.76l.08-.4c-.13.6-.28 1.2-.47 1.79.15-.46.28-.92.39-1.39zM97.73 107.22c-.14.29-.57 1.09-.85 1.51a13.61 13.61 0 0 0 .85-1.51zM95.9 110a11.91 11.91 0 0 0 .84-1.1 11.93 11.93 0 0 1-.84 1.1zM93.16 112.32a10.32 10.32 0 0 0 1.25-.86 10.34 10.34 0 0 1-1.25.86zM98.43 105.46a15.8 15.8 0 0 1-.61 1.54 15.7 15.7 0 0 0 .61-1.54zM99.26 94.41q-.07-.56-.15-1.11.19 1.26.3 2.54c-.05-.48-.09-.96-.15-1.43zM98.7 91.11l-.09-.4c.19.84.35 1.69.49 2.54q-.17-1.07-.4-2.14z"/><path d="M124.63 83c-.28-11.26-6.05-22.54-13.86-30.46-.75-.76-.61-.72-1.4-.26S85.44 65.91 85.18 66.29s-.23 0 .13.49c.89 1.09 2 2.05 2.88 3.14a52.19 52.19 0 0 1 4.93 7 46.74 46.74 0 0 1 6 16.31c.81 5.24.71 11.48-2.56 15.93a11.21 11.21 0 0 1-3.38 3.11c5.11-2.94 18.48-10.77 24.66-14.32 5.35-3.04 6.94-9.13 6.79-14.95z" fill="url(#linear-gradient-10)"/><path d="M85 66.54l-.2 46.94c8.46 1.58 14.6-4.1 14.68-15S93.51 74.8 85 66.54z" fill="url(#linear-gradient-11)"/></g><path d="M107.35 97.5l3-22.21c-.12.13-1.67.86-2.38 1.24l-6.39 3.14-1.93-3.55 15.08-8.21 1.75 3.88-3.43 22.69z" fill="url(#linear-gradient-12)"/><path d="M88.18 69.92q.66.79 1.28 1.61c8.42-4.93 16.94-9.62 25.64-14a50.48 50.48 0 0 0-4.33-5c-.75-.76-.61-.72-1.4-.26S85.44 65.91 85.18 66.29s-.23 0 .13.49c.88 1.09 1.97 2.05 2.87 3.14z" fill="url(#linear-gradient-13)"/><g class="cls-7"><path class="cls-8" d="M60.64 89.59c.52.71 1 1.43 1.49 2.17-.48-.76-.97-1.46-1.49-2.17zM59.68 88.33l-.8-1q.91 1.1 1.75 2.26c-.31-.42-.63-.85-.95-1.26zM63 93.15c.24.39.48.77.71 1.17-.23-.4-.48-.78-.71-1.17zM68.62 106l-.24-.84q.36 1.23.65 2.48c-.13-.58-.26-1.13-.41-1.64zM64 94.88c.37.66.73 1.33 1.08 2-.33-.67-.69-1.33-1.08-2zM67.94 103.71c-.14-.44-.3-.87-.45-1.31q.46 1.27.85 2.57c-.13-.42-.26-.84-.4-1.26zM65.84 98.43c-.2-.44-.42-.88-.63-1.31q.62 1.23 1.16 2.5-.25-.62-.53-1.19zM66.75 100.5l-.32-.75q.53 1.23 1 2.49c-.22-.58-.43-1.16-.68-1.74zM58 86.32q-.48-.55-1-1.08.94 1 1.81 2.07zM69.92 113.64v-.48c.06.83.1 1.66.09 2.49q-.01-1-.09-2.01zM66 127.51a10.86 10.86 0 0 1-.81.78 10.84 10.84 0 0 0 .81-.78zM69.76 118.81q0-.29.06-.59-.11 1-.3 2c.1-.46.18-.93.24-1.41zM69.94 116.76v-1.1q0 1.18-.12 2.36c.07-.42.1-.84.12-1.26zM69.39 120.89l.08-.4c-.13.6-.28 1.2-.47 1.79.15-.46.28-.92.39-1.39zM68.19 124.35c-.14.29-.57 1.09-.85 1.51a13.61 13.61 0 0 0 .85-1.51zM66.37 127.15a11.91 11.91 0 0 0 .84-1.1 11.93 11.93 0 0 1-.84 1.1zM63.62 129.45a10.32 10.32 0 0 0 1.25-.86 10.34 10.34 0 0 1-1.25.86zM68.89 122.59a15.8 15.8 0 0 1-.61 1.54 15.7 15.7 0 0 0 .61-1.54zM69.73 111.54q-.07-.56-.15-1.11.19 1.26.3 2.54c-.05-.48-.1-.97-.15-1.43zM69.17 108.24l-.09-.4c.19.84.35 1.69.49 2.54q-.17-1.07-.4-2.14z"/><path d="M95.1 100.09c-.28-11.26-6.05-22.54-13.86-30.46-.75-.76-.61-.72-1.4-.26S55.91 83 55.64 83.42s-.23 0 .13.49c.89 1.09 2 2.05 2.88 3.14a52.19 52.19 0 0 1 4.93 7 46.74 46.74 0 0 1 6 16.31c.81 5.24.71 11.48-2.56 15.93a11.21 11.21 0 0 1-3.38 3.11c5.11-2.94 18.48-10.77 24.66-14.32 5.36-3.08 6.95-9.13 6.8-14.99z" fill="url(#linear-gradient-14)"/><path d="M55.5 83.67l-.2 46.94c8.46 1.58 14.6-4.1 14.68-15S64 91.93 55.5 83.67z" fill="url(#linear-gradient-15)"/></g><path d="M77.82 114.63l3-22.21c-.12.13-1.67.86-2.38 1.24L72 96.8l-1.93-3.55L85.2 85l1.8 3.91-3.48 22.69z" fill="url(#linear-gradient-16)"/><path d="M58.65 87q.66.79 1.28 1.61c8.42-4.93 16.94-9.62 25.64-14a50.48 50.48 0 0 0-4.33-5c-.75-.76-.61-.72-1.4-.26S55.91 83 55.64 83.42s-.23 0 .13.49C56.66 85 57.75 86 58.65 87z" fill="url(#linear-gradient-17)"/><path d="M48.3 90.34l104.4-59.08c-.47-10.13-3.9-14.41-8.75-17.21C142.7 13.33 133.16 8 130 6.22l-.72-.76L24.54 64.73z" fill="url(#linear-gradient-18)"/><path d="M39.45 73.05c5.26 3 8.85 7.8 8.81 19.88l-.08 24c0 6.84 1.63 17.38 7.58 20.81l15.52 9.07v13.81l-47.16-27 .41-69s13.42 7.57 14.92 8.43z" fill="url(#linear-gradient-19)"/></svg>