<svg data-name="sports" xmlns="http://www.w3.org/2000/svg" xmlns:xlink="http://www.w3.org/1999/xlink" viewBox="0 0 200 168"><defs><linearGradient id="b" x1="8.53" y1="83.82" x2="192.02" y2="83.82" gradientTransform="matrix(1 0 0 -1 0 167.89)" gradientUnits="userSpaceOnUse"><stop offset=".12" stop-color="#30ade6"/><stop offset=".36" stop-color="#59bdeb"/><stop offset=".9" stop-color="#c1e6f8"/><stop offset="1" stop-color="#d4eefa"/></linearGradient><clipPath id="c"><path fill="none" d="M192.02 84.07l-91.45 53.14L8.53 84.07l91.44-53.14 92.05 53.14z"/></clipPath><linearGradient id="d" x1="100.49" y1="50.99" x2="192.02" y2="50.99" gradientTransform="matrix(1 0 0 -1 0 167.89)" gradientUnits="userSpaceOnUse"><stop offset="0" stop-color="#051335"/><stop offset=".05" stop-color="#0a1f43"/><stop offset=".21" stop-color="#17416c"/><stop offset=".34" stop-color="#1f5686"/><stop offset=".41" stop-color="#225e8f"/><stop offset=".73" stop-color="#3081c5"/><stop offset="1" stop-color="#30ade6"/></linearGradient><linearGradient id="e" x1="8.45" y1="50.99" x2="100.57" y2="50.99" gradientTransform="matrix(1 0 0 -1 0 167.89)" gradientUnits="userSpaceOnUse"><stop offset="0" stop-color="#1b264a"/><stop offset="1" stop-color="#0a0e1b"/></linearGradient><linearGradient id="a" x1="103.74" y1="125.49" x2="298.76" y2="125.49" gradientTransform="matrix(1 0 0 -1 0 167.89)" gradientUnits="userSpaceOnUse"><stop offset=".07" stop-color="#30ade6"/><stop offset=".19" stop-color="#59bdeb"/><stop offset=".44" stop-color="#c1e6f8"/><stop offset=".48" stop-color="#d4eefa"/><stop offset=".53" stop-color="#cdebf9"/><stop offset="1" stop-color="#30ade6"/></linearGradient><linearGradient id="f" x1="103.74" y1="132.61" x2="295.56" y2="132.61" xlink:href="#a"/><linearGradient id="g" x1="34.12" y1="62.95" x2="41.21" y2="116.71" gradientTransform="matrix(1 0 0 -1 0 167.89)" gradientUnits="userSpaceOnUse"><stop offset=".11" stop-color="#fff" stop-opacity="0"/><stop offset=".69" stop-color="#111931" stop-opacity=".9"/></linearGradient><linearGradient id="h" x1="26.92" y1="101.19" x2="76.95" y2="133.26" gradientTransform="matrix(1 0 0 -1 0 167.89)" gradientUnits="userSpaceOnUse"><stop offset=".12" stop-color="#30ade6"/><stop offset=".22" stop-color="#38b0e7"/><stop offset=".38" stop-color="#4fb9ea"/><stop offset=".59" stop-color="#75c8ee"/><stop offset=".82" stop-color="#a8ddf5"/><stop offset="1" stop-color="#d4eefa"/></linearGradient><clipPath id="i"><circle cx="49.51" cy="52.22" r="29.71" fill="none"/></clipPath><radialGradient id="j" cx="24.94" cy="104.44" r="4.34" gradientTransform="matrix(1 0 0 -1 0 167.89)" gradientUnits="userSpaceOnUse"><stop offset="0" stop-color="#d99f9e"/><stop offset="1" stop-color="#d92522"/></radialGradient><linearGradient id="k" x1="35.17" y1="97.63" x2="72.19" y2="144.54" gradientTransform="matrix(1 0 0 -1 0 167.89)" gradientUnits="userSpaceOnUse"><stop offset="0" stop-color="#d92522"/><stop offset=".95" stop-color="#fcbdbd"/></linearGradient><linearGradient id="l" x1="161.77" y1="132.38" x2="112.54" y2="93.95" gradientTransform="matrix(1 0 0 -1 0 167.89)" gradientUnits="userSpaceOnUse"><stop offset=".31" stop-color="#081d42" stop-opacity=".9"/><stop offset=".89" stop-color="#fff" stop-opacity="0"/></linearGradient><linearGradient id="m" x1="106" y1="120.69" x2="161.18" y2="120.69" xlink:href="#a"/><linearGradient id="n" x1="149.02" y1="103.56" x2="158.35" y2="122.43" gradientTransform="matrix(1 0 0 -1 0 167.89)" gradientUnits="userSpaceOnUse"><stop offset=".07" stop-color="#30ade6"/><stop offset=".33" stop-color="#59bdeb"/><stop offset=".9" stop-color="#c1e6f8"/><stop offset="1" stop-color="#d4eefa"/></linearGradient></defs><g data-name="Layer 2"><path fill="url(#b)" d="M192.02 84.07l-91.45 53.14L8.53 84.07l91.44-53.14 92.05 53.14z"/><g clip-path="url(#c)" fill="none" stroke="#fff" stroke-miterlimit="10" stroke-width="2"><path d="M33.48 100.08l17.33-9.91 38.92 22.47-17.56 9.62M160.61 65.48l-15.83 9.16-38.92-22.48 17.19-9.58M116.3 74.75c8.91 5.14 9 13.48.1 18.63s-23.25 5.14-32.16 0-9-13.48-.1-18.62 23.25-5.15 32.16-.01zM216.43 74.46c7 4.06 7.07 10.65.08 14.71s-18.37 4.06-25.4 0S184 78.52 191 74.46s18.39-4.06 25.43 0zM114.43 135.21c7 4.06 7.07 10.65.08 14.71s-18.37 4.06-25.4 0S82 139.27 89 135.21s18.39-4.06 25.43 0zM10.18 78.21c7 4.06 7.07 10.65.08 14.71s-18.37 4.06-25.4 0-7.07-10.65-.08-14.71 18.36-4.06 25.4 0zM112.18 16.71c7 4.06 7.07 10.65.08 14.71s-18.37 4.06-25.4 0-7.07-10.65-.08-14.71 18.36-4.06 25.4 0zM30.28 43.47l139.98 81.19"/></g><path fill="url(#d)" d="M192.02 84.07l-.08 12.51-91.45 53.14.08-12.51 91.45-53.14z"/><path fill="url(#e)" d="M100.57 137.21l-.08 12.51L8.45 96.58l.08-12.51 92.04 53.14z"/><path opacity=".34" fill="url(#a)" style="isolation:isolate" d="M161.18 66.31L153.3 41.5l-39.69-23-7.68 4.63-2.19 28.93 16.81-9.25v.02l40.63 23.48z"/><path d="M113.67 18.69l-.05-.19-7.69 4.63-2.19 28.94 16.81-9.25s-6.31-23.82-6.88-24.13z" opacity=".34" fill="url(#f)" style="isolation:isolate"/><path d="M8 84.33l30.12-17.42 28.66 9C58.81 87.82 35 99.33 35 99.33z" fill="url(#g)"/><circle cx="49.51" cy="52.22" r="29.71" fill="url(#h)"/><g clip-path="url(#i)"><path d="M28.21 68.5c-3.22-2.59-6.61-9.64-6.76-9.94l.34-.16c0 .07 3.5 7.27 6.65 9.81z" fill="url(#j)"/><path d="M62 23.94v1.17a21.59 21.59 0 0 1 2.76 8.31l-10 4c-1.7-1.09-10.56-3.36-12.34-3.81L41 26.08c1.09-.57 8.06-4.13 11.15-4.24 0 0-14.92-2.88-22.35 6.79 0 0 7.91-2.35 10.83-2.46L42 33.63c-.66.65-5.94 5.9-8.23 9.92-2.34.06-7.45 1.53-9.53 2.15-.78-2.21-.57-9.07-1-8.82-1.6.88-5 16.9-4.59 18.75s3 2.84 3 2.84C21.81 55 24 47.38 24.32 46.08c2-.6 7.1-2.08 9.42-2.17a41.54 41.54 0 0 0 7.08 10.9C40.36 56.22 38 64 37.47 67.08a86.27 86.27 0 0 1-9.14 1.28C28.2 70.21 32.92 79 32.92 79s9.68 4.44 11.44 3.16C45.87 81 47.92 77 48.44 75.9c2.45-.68 9.68-2.76 12.41-4.21.37.49 8.89 2.69 8.89 2.69 2.73-1.6 7.5-10.4 7.5-10.4.23-2.12-2.08-8-2.62-9.29 1.19-3.52.63-10.94.49-12.61.74-.48 3.37-2.25 3.8-4C79.41 36.16 62 23.94 62 23.94zm-1.14 47.32c-2.43 1.38-10 3.56-12.49 4.27-3.42-2-9.72-7.71-10.52-8.45.51-3 2.83-10.59 3.29-12.09 1.34-.38 11.46-3.29 13.13-4.2L64 59.54c-.08 2.53-2.81 9.84-3.14 11.72zM74.25 54.6c-2.62 1.85-8.76 4.18-10.05 4.66l-9.79-8.84c.1-1.76.61-11 .63-12.67l10-4A51.57 51.57 0 0 1 74.73 42c.12 1.35.72 9.12-.48 12.6z" fill="url(#k)"/></g><path opacity=".76" fill="url(#l)" style="isolation:isolate" d="M120.59 42.67L96.26 56.5l41 23.67 23.75-13.92-40.42-23.58z"/><path d="M113.59 18.58L153.3 41.5c-.12-.17 7.88 24.88 7.88 24.88l-16.31 9.44.37-30.49L106 23.17z" opacity=".64" fill="url(#m)" style="isolation:isolate"/><path d="M153.3 41.5c-.12-.17 7.88 24.88 7.88 24.88l-16.31 9.44.37-30.49z" opacity=".3" fill="url(#n)" style="isolation:isolate"/></g></svg>