<?xml version="1.0" encoding="UTF-8"?>
<svg width="79px" height="60px" viewBox="0 0 79 60" version="1.1" xmlns="http://www.w3.org/2000/svg" xmlns:xlink="http://www.w3.org/1999/xlink">
    <!-- Generator: Sketch 49.2 (51160) - http://www.bohemiancoding.com/sketch -->
    <title>logo</title>
    <desc>Created with Sketch.</desc>
    <defs></defs>
    <g id="Page-1" stroke="none" stroke-width="1" fill="none" fill-rule="evenodd">
        <g id="logo" fill="#FFFFFF" fill-rule="nonzero">
            <g id="Group" transform="translate(0.000000, 42.000000)">
                <g transform="translate(0.000000, 1.000000)" id="Shape">
                    <polygon points="0.8 0.7 8.4 0.7 8.4 2.2 2.3 2.2 2.3 6.9 8.4 6.9 8.4 8.4 2.3 8.4 2.3 15.8 0.8 15.8"></polygon>
                    <path d="M2.6,16.1 L0.4,16.1 L0.4,0.4 L8.6,0.4 L8.6,2.5 L2.6,2.5 L2.6,6.6 L8.7,6.6 L8.7,8.7 L2.6,8.7 L2.6,16.1 Z M1.1,15.5 L1.9,15.5 L1.9,8.1 L8,8.1 L8,7.3 L1.9,7.3 L1.9,1.9 L8,1.9 L8,1.1 L1.1,1.1 L1.1,15.5 Z"></path>
                </g>
                <g transform="translate(9.000000, 5.000000)" id="Shape">
                    <path d="M12.8,0.7 L12.8,11.9 L11.4,11.9 L11.4,10 C10.8,10.7 10.1,11.3 9.4,11.7 C8.7,12.1 7.8,12.3 6.9,12.3 C5.3,12.3 4,11.7 2.9,10.6 C1.8,9.5 1.2,8.1 1.2,6.4 C1.2,4.8 1.8,3.4 2.9,2.3 C4,1.2 5.4,0.6 7,0.6 C7.9,0.6 8.7,0.8 9.5,1.2 C10.2,1.6 10.9,2.2 11.5,3 L11.5,0.9 L12.8,0.9 L12.8,0.7 Z M7.1,1.8 C6.3,1.8 5.6,2 4.9,2.4 C4.2,2.8 3.7,3.3 3.3,4.1 C2.9,4.8 2.7,5.6 2.7,6.4 C2.7,7.2 2.9,7.9 3.3,8.7 C3.7,9.4 4.2,10 4.9,10.4 C5.6,10.8 6.3,11 7.1,11 C7.9,11 8.6,10.8 9.3,10.4 C10,10 10.5,9.5 10.9,8.8 C11.3,8.1 11.5,7.4 11.5,6.5 C11.5,5.2 11.1,4.1 10.2,3.3 C9.4,2.2 8.3,1.8 7.1,1.8 Z"></path>
                    <path d="M6.9,12.4 C5.2,12.4 3.8,11.8 2.6,10.6 C1.4,9.4 0.8,7.9 0.8,6.2 C0.8,4.5 1.4,3 2.6,1.8 C3.8,0.6 5.2,7.10542736e-15 6.9,7.10542736e-15 C7.9,7.10542736e-15 8.8,0.2 9.5,0.6 C10,0.9 10.5,1.3 11,1.7 L11,0.2 L13.1,0.2 L13.1,12 L11,12 L11,10.6 C10.5,11.1 10,11.4 9.5,11.7 C8.7,12.2 7.9,12.4 6.9,12.4 Z M7,0.7 C5.5,0.7 4.2,1.2 3.2,2.3 C2.1,3.4 1.6,4.7 1.6,6.2 C1.6,7.7 2.1,9.1 3.2,10.1 C4.3,11.2 5.5,11.7 7,11.7 C7.8,11.7 8.6,11.5 9.3,11.2 C10,10.9 10.6,10.3 11.2,9.6 L11.8,8.9 L11.8,11.4 L12.6,11.4 L12.6,1 L11.8,1 L11.8,3.7 L11.2,2.9 C10.7,2.2 10.1,1.6 9.4,1.2 C8.6,0.9 7.8,0.7 7,0.7 Z M7.1,11.1 C6.3,11.1 5.5,10.9 4.7,10.5 C4,10.1 3.4,9.5 3,8.7 C2.6,7.9 2.4,7.1 2.4,6.3 C2.4,5.5 2.6,4.6 3,3.9 C3.4,3.1 4,2.5 4.7,2.1 C5.4,1.7 6.2,1.5 7.1,1.5 C8.4,1.5 9.6,2 10.5,2.9 C11.4,3.8 11.9,5 11.9,6.4 C11.9,7.3 11.7,8.1 11.3,8.8 C10.9,9.5 10.3,10.1 9.6,10.5 C8.7,10.9 7.9,11.1 7.1,11.1 Z M7.1,2.1 C6.4,2.1 5.7,2.3 5.1,2.6 C4.5,3 4,3.5 3.6,4.1 C3.2,4.8 3,5.5 3,6.2 C3,6.9 3.2,7.6 3.6,8.3 C4,9 4.5,9.5 5.1,9.9 C6.4,10.6 7.9,10.6 9.2,9.9 C9.8,9.5 10.3,9 10.7,8.4 C11,7.8 11.2,7.1 11.2,6.3 C11.2,5.1 10.8,4.1 10,3.3 C9.2,2.5 8.2,2.1 7.1,2.1 Z"></path>
                </g>
                <g transform="translate(24.000000, 0.000000)" id="Shape">
                    <path d="M1.6,1.1 C1.9,1.1 2.2,1.2 2.4,1.4 C2.6,1.6 2.7,1.9 2.7,2.2 C2.7,2.5 2.6,2.8 2.4,3 C2.2,3.2 1.9,3.3 1.6,3.3 C1.3,3.3 1,3.2 0.8,3 C0.6,2.8 0.5,2.5 0.5,2.2 C0.5,1.9 0.6,1.6 0.8,1.4 C1,1.2 1.2,1.1 1.6,1.1 Z M0.8,5.7 L2.2,5.7 L2.2,16.9 L0.8,16.9 L0.8,5.7 Z"></path>
                    <path d="M2.6,17.1 L0.5,17.1 L0.5,5.3 L2.6,5.3 L2.6,17.1 Z M1.2,16.5 L2,16.5 L2,6 L1.2,6 L1.2,16.5 Z M1.6,3.8 C1.2,3.8 0.8,3.6 0.5,3.4 C0.2,3 0,2.7 0,2.3 C0,1.9 0.1,1.5 0.4,1.2 C1,0.6 1.9,0.6 2.5,1.2 C2.8,1.5 2.9,1.9 2.9,2.3 C2.9,2.7 2.8,3.1 2.5,3.4 C2.3,3.6 2,3.8 1.6,3.8 Z M1.6,1.4 C1.4,1.4 1.2,1.5 1,1.7 C0.8,1.9 0.7,2.1 0.7,2.3 C0.7,2.5 0.8,2.7 1,2.9 C1.3,3.2 1.9,3.2 2.2,2.9 C2.4,2.7 2.5,2.5 2.5,2.3 C2.5,2.1 2.4,1.9 2.2,1.7 C2,1.5 1.8,1.4 1.6,1.4 Z"></path>
                </g>
                <g transform="translate(28.000000, 4.000000)" id="Shape">
                    <path d="M0.7,1.7 L2.2,1.7 L2.2,3.3 C2.6,2.7 3.1,2.2 3.6,1.9 C4.1,1.6 4.6,1.4 5.1,1.4 C5.5,1.4 5.9,1.5 6.4,1.8 L5.6,3 C5.3,2.9 5,2.8 4.8,2.8 C4.3,2.8 3.9,3 3.4,3.4 C3,3.8 2.6,4.4 2.4,5.2 C2.2,5.8 2.1,7.1 2.1,9.1 L2.1,12.9 L0.6,12.9 L0.6,1.7 L0.7,1.7 Z"></path>
                    <path d="M2.5,13.1 L0.4,13.1 L0.4,1.3 L2.5,1.3 L2.5,2.3 C2.8,2 3.1,1.7 3.4,1.5 C4.4,0.9 5.4,0.7 6.5,1.4 L6.8,1.6 L5.7,3.3 L5.4,3.2 C5.1,3.1 4.9,3 4.8,3 C4.4,3 4,3.2 3.6,3.5 C3.2,3.8 2.9,4.4 2.7,5.2 C2.5,5.8 2.4,7.1 2.4,9 L2.4,13.1 L2.5,13.1 Z M1,12.5 L1.8,12.5 L1.8,9 C1.8,7 1.9,5.7 2.1,5.1 C2.3,4.2 2.7,3.5 3.2,3.1 C3.7,2.7 4.2,2.4 4.8,2.4 C5,2.4 5.2,2.4 5.4,2.5 L5.8,1.8 C5,1.4 4.3,1.6 3.7,2 C3.3,2.3 2.8,2.7 2.4,3.4 L1.8,4.3 L1.8,2 L1,2 L1,12.5 Z"></path>
                </g>
                <g transform="translate(34.000000, 5.000000)" id="Shape">
                    <path d="M11,8.1 L12.2,8.7 C11.8,9.5 11.3,10.1 10.8,10.6 C10.3,11.1 9.7,11.4 9,11.7 C8.3,11.9 7.6,12.1 6.8,12.1 C5,12.1 3.6,11.5 2.5,10.3 C1.5,9.1 1,7.8 1,6.3 C1,4.9 1.4,3.6 2.3,2.5 C3.4,1.1 4.9,0.4 6.7,0.4 C8.6,0.4 10.1,1.1 11.3,2.6 C12.1,3.6 12.5,4.9 12.5,6.4 L2.5,6.4 C2.5,7.7 2.9,8.8 3.7,9.6 C4.5,10.4 5.5,10.8 6.7,10.8 C7.3,10.8 7.8,10.7 8.4,10.5 C8.9,10.3 9.4,10 9.8,9.7 C10.1,9.4 10.5,8.8 11,8.1 Z M11,5.1 C10.8,4.3 10.5,3.7 10.2,3.3 C9.8,2.8 9.3,2.5 8.7,2.2 C8.1,1.9 7.5,1.8 6.8,1.8 C5.7,1.8 4.8,2.2 4,2.9 C3.4,3.4 3,4.2 2.7,5.2 L11,5.2 L11,5.1 Z"></path>
                    <path d="M6.8,12.4 C4.9,12.4 3.4,11.8 2.3,10.5 C1.2,9.3 0.7,7.8 0.7,6.2 C0.7,4.7 1.2,3.4 2.1,2.2 C3.3,0.7 4.8,0 6.8,0 C8.8,0 10.4,0.8 11.6,2.3 C12.4,3.4 12.9,4.7 12.9,6.3 L12.9,6.6 L2.9,6.6 C3,7.7 3.4,8.5 4,9.2 C4.7,10 5.6,10.3 6.7,10.3 C7.2,10.3 7.7,10.2 8.2,10 C8.7,9.8 9.1,9.6 9.5,9.3 C9.8,9 10.2,8.5 10.7,7.8 L10.9,7.5 L12.7,8.4 L12.6,8.7 C12.2,9.5 11.7,10.2 11.2,10.7 C10.7,11.2 10,11.6 9.3,11.9 C8.5,12.3 7.7,12.4 6.8,12.4 Z M6.8,0.7 C5,0.7 3.7,1.3 2.6,2.7 C1.8,3.7 1.4,4.9 1.4,6.3 C1.4,7.7 1.9,9 2.9,10.1 C3.9,11.2 5.2,11.8 6.9,11.8 C7.7,11.8 8.4,11.7 9,11.4 C9.6,11.2 10.2,10.8 10.6,10.4 C11,10 11.4,9.5 11.8,8.9 L11.2,8.6 C10.8,9.2 10.4,9.7 10.1,10 C9.7,10.4 9.2,10.6 8.6,10.8 C8,11 7.4,11.1 6.8,11.1 C5.5,11.1 4.5,10.6 3.6,9.8 C2.7,8.9 2.3,7.8 2.3,6.4 L2.3,6.1 L12.3,6.1 C12.2,4.8 11.8,3.7 11.1,2.8 C10,1.4 8.6,0.7 6.8,0.7 Z M11.4,5.4 L2.2,5.4 L2.3,5 C2.6,3.9 3.1,3.1 3.7,2.5 C4.5,1.7 5.6,1.4 6.7,1.4 C7.4,1.4 8.1,1.6 8.7,1.9 C9.3,2.2 9.9,2.6 10.3,3.1 C10.7,3.6 11,4.3 11.2,5.1 L11.4,5.4 Z M3.1,4.8 L10.5,4.8 C10.3,4.3 10.1,3.8 9.8,3.5 C9.5,3.1 9,2.7 8.5,2.5 C7.9,2.2 7.4,2.1 6.7,2.1 C5.7,2.1 4.8,2.4 4.1,3.1 C3.7,3.4 3.4,4 3.1,4.8 Z"></path>
                </g>
                <g transform="translate(48.000000, 5.000000)" id="Shape">
                    <path d="M1,0.7 L2.4,0.7 L2.4,5.9 C2.4,7.2 2.5,8 2.6,8.5 C2.8,9.2 3.2,9.7 3.8,10.1 C4.4,10.5 5.1,10.7 5.9,10.7 C6.7,10.7 7.4,10.5 7.9,10.1 C8.5,9.7 8.8,9.2 9.1,8.6 C9.2,8.2 9.3,7.3 9.3,5.9 L9.3,0.7 L10.8,0.7 L10.8,6.2 C10.8,7.7 10.6,8.9 10.3,9.7 C9.9,10.5 9.4,11.1 8.7,11.5 C8,11.9 7.1,12.2 6,12.2 C4.9,12.2 4,12 3.3,11.5 C2.6,11.1 2,10.4 1.7,9.7 C1.4,9 1,7.6 1,6 L1,0.7 Z"></path>
                    <path d="M5.9,12.4 C4.8,12.4 3.8,12.2 3,11.7 C2.2,11.2 1.6,10.6 1.2,9.7 C0.8,8.9 0.6,7.6 0.6,6 L0.6,0.3 L2.7,0.3 L2.7,5.8 C2.7,7 2.8,7.9 2.9,8.3 C3.1,8.9 3.4,9.4 3.9,9.7 C4.4,10.1 5.1,10.2 5.8,10.2 C6.5,10.2 7.2,10 7.7,9.7 C8.2,9.4 8.5,8.9 8.7,8.3 C8.8,8 8.9,7.4 8.9,5.7 L8.9,0.2 L11,0.2 L11,6 C11,7.6 10.8,8.8 10.4,9.6 C10,10.4 9.4,11.1 8.7,11.6 C8,12.2 7.1,12.4 5.9,12.4 Z M1.4,1 L1.4,6 C1.4,7.5 1.6,8.7 1.9,9.4 C2.2,10.1 2.7,10.7 3.4,11.1 C4.1,11.5 4.9,11.7 6,11.7 C7,11.7 7.9,11.5 8.5,11.1 C9.2,10.7 9.7,10.1 10,9.4 C10.3,8.7 10.5,7.5 10.5,6.1 L10.5,1 L9.7,1 L9.7,5.9 C9.7,7.3 9.6,8.3 9.5,8.7 C9.3,9.4 8.8,10 8.2,10.4 C7.6,10.8 6.8,11 6,11 C5.1,11 4.4,10.8 3.7,10.3 C3.1,9.9 2.6,9.3 2.4,8.5 C2.3,8 2.2,7.1 2.2,5.8 L2.2,1 L1.4,1 Z"></path>
                </g>
                <g transform="translate(61.000000, 4.000000)" id="Shape">
                    <path d="M1,1.7 L2.4,1.7 L2.4,3.6 C2.9,2.9 3.4,2.4 3.9,2 C4.6,1.6 5.4,1.3 6.2,1.3 C6.7,1.3 7.3,1.4 7.7,1.6 C8.2,1.8 8.6,2.1 8.9,2.4 C9.2,2.8 9.5,3.3 9.7,3.9 C10.2,3 10.8,2.4 11.5,1.9 C12.2,1.4 13,1.2 13.8,1.2 C14.6,1.2 15.3,1.4 15.8,1.8 C16.4,2.2 16.8,2.7 17.1,3.4 C17.4,4.1 17.5,5.1 17.5,6.5 L17.5,12.6 L16,12.6 L16,6.5 C16,5.3 15.9,4.5 15.7,4 C15.5,3.6 15.2,3.2 14.8,2.9 C14.4,2.6 13.9,2.5 13.3,2.5 C12.6,2.5 12,2.7 11.4,3.1 C10.8,3.5 10.4,4.1 10.1,4.7 C9.8,5.4 9.7,6.5 9.7,8.1 L9.7,12.5 L8.3,12.5 L8.3,6.8 C8.3,5.5 8.2,4.5 8,4.1 C7.8,3.6 7.5,3.2 7.1,2.9 C6.7,2.6 6.2,2.5 5.6,2.5 C4.9,2.5 4.3,2.7 3.7,3.1 C3.1,3.5 2.7,4 2.4,4.7 C2.1,5.4 2,6.4 2,7.8 L2,12.5 L1,12.5 L1,1.7 Z"></path>
                    <path d="M18,13.1 L15.9,13.1 L15.9,6.7 C15.9,5.3 15.8,4.6 15.7,4.4 C15.6,4 15.3,3.7 15,3.5 C14.6,3.3 14.2,3.1 13.7,3.1 C13.1,3.1 12.5,3.3 12,3.7 C11.5,4.1 11.1,4.6 10.9,5.2 C10.7,5.8 10.5,7 10.5,8.5 L10.5,13.2 L8.4,13.2 L8.4,7.2 C8.4,5.9 8.3,5 8.2,4.6 C8.1,4.2 7.8,3.9 7.4,3.6 C7,3.3 6.6,3.2 6.1,3.2 C5.5,3.2 5,3.4 4.4,3.7 C3.9,4.1 3.5,4.6 3.2,5.2 C2.9,5.8 2.8,6.8 2.8,8.2 L2.8,13.3 L0.7,13.3 L0.7,1.3 L2.8,1.3 L2.8,2.6 C3.1,2.2 3.5,1.9 3.8,1.7 C5.1,0.9 6.6,0.8 7.9,1.3 C8.4,1.5 8.9,1.8 9.2,2.2 C9.4,2.5 9.6,2.8 9.8,3.2 C10.2,2.6 10.8,2 11.4,1.7 C12.2,1.2 13,1 13.9,1 C14.7,1 15.5,1.2 16.1,1.6 C16.7,2 17.2,2.6 17.5,3.4 C17.8,4.1 18,5.2 18,6.7 L18,13.1 Z M16.5,12.5 L17.3,12.5 L17.3,6.7 C17.3,5.4 17.2,4.3 16.9,3.7 C16.6,3.1 16.2,2.6 15.7,2.2 C15.2,1.8 14.5,1.7 13.8,1.7 C13,1.7 12.3,1.9 11.7,2.3 C11,2.7 10.5,3.4 10,4.2 L9.6,4.9 L9.4,4.2 C9.2,3.6 8.9,3.1 8.7,2.8 C8.4,2.5 8.1,2.2 7.6,2 C6.5,1.5 5.2,1.6 4.1,2.3 C3.6,2.6 3.1,3.1 2.7,3.8 L2.1,4.7 L2.1,2 L1.3,2 L1.3,12.5 L2.1,12.5 L2.1,8.1 C2.1,6.6 2.2,5.6 2.5,4.9 C2.8,4.2 3.3,3.6 3.9,3.1 C4.5,2.7 5.2,2.4 5.9,2.4 C6.5,2.4 7.1,2.6 7.6,2.9 C8.1,3.2 8.4,3.7 8.6,4.2 C8.8,4.7 8.9,5.7 8.9,7.1 L8.9,12.5 L9.7,12.5 L9.7,8.5 C9.7,6.8 9.8,5.7 10.1,5 C10.4,4.3 10.9,3.7 11.5,3.2 C12.1,2.8 12.8,2.5 13.6,2.5 C14.2,2.5 14.8,2.7 15.3,3 C15.8,3.3 16.1,3.7 16.3,4.2 C16.5,4.7 16.6,5.5 16.6,6.8 L16.6,12.5 L16.5,12.5 Z"></path>
                </g>
            </g>
            <g id="Group" transform="translate(19.000000, 0.000000)">
                <g transform="translate(10.000000, 8.000000)" id="Shape">
                    <path d="M19.4,4.7 L2,4.7 C1.3,4.7 0.7,4.1 0.7,3.4 L0.7,1.8 C0.7,1.1 1.3,0.5 2,0.5 L19.4,0.5 C20.1,0.5 20.7,1.1 20.7,1.8 L20.7,3.4 C20.7,4.1 20.1,4.7 19.4,4.7 Z"></path>
                    <path d="M13.6,12.5 L2,12.5 C1.3,12.5 0.7,11.9 0.7,11.2 L0.7,9.6 C0.7,8.9 1.3,8.3 2,8.3 L13.6,8.3 C14.3,8.3 14.9,8.9 14.9,9.6 L14.9,11.2 C14.9,12 14.3,12.5 13.6,12.5 Z"></path>
                    <path d="M7.8,20.4 L2,20.4 C1.3,20.4 0.7,19.8 0.7,19.1 L0.7,17.5 C0.7,16.8 1.3,16.2 2,16.2 L7.7,16.2 C8.4,16.2 9,16.8 9,17.5 L9,19.1 C9,19.8 8.5,20.4 7.8,20.4 Z"></path>
                </g>
                <g id="Shape">
                    <g transform="translate(2.000000, 0.000000)">
                        <path d="M18.7,1 C27.8,1 35.2,7.9 36.1,16.8 L36.9,16.8 C36,7.6 28.2,0.3 18.7,0.3 C9.8,0.3 2.3,6.8 0.8,15.3 L1.6,15.3 C3.1,7.2 10.2,1 18.7,1 Z"></path>
                        <path d="M37.1,17.1 L35.8,17.1 L35.8,16.9 C35,8 27.6,1.3 18.7,1.3 C10.4,1.3 3.3,7.2 1.8,15.3 L1.8,15.5 L0.5,15.5 L0.6,15.2 C2.1,6.4 9.8,0 18.7,0 C28.2,0 36.2,7.4 37.1,16.8 L37.1,17.1 Z M36.3,16.6 L36.5,16.6 C35.5,7.6 27.8,0.6 18.7,0.6 C10.1,0.6 2.8,6.7 1.1,15.1 L1.3,15.1 C3,6.7 10.3,0.8 18.7,0.8 C27.8,0.8 35.3,7.5 36.3,16.6 Z"></path>
                    </g>
                    <g transform="translate(2.000000, 20.000000)">
                        <path d="M18.7,15.9 C9.7,15.9 2.3,9.1 1.4,0.4 L0.6,0.4 C1.6,9.5 9.3,16.7 18.7,16.7 C27.6,16.7 35,10.3 36.6,2 L35.8,2 C34.2,9.9 27.2,15.9 18.7,15.9 Z"></path>
                        <path d="M18.7,16.9 C9.2,16.9 1.3,9.8 0.3,0.4 L0.3,0.1 L1.6,0.1 L1.6,0.3 C2.6,9 9.9,15.6 18.7,15.6 C26.8,15.6 33.9,9.8 35.5,1.8 L35.5,1.6 L36.8,1.6 L36.8,2 C35.2,10.6 27.5,16.9 18.7,16.9 Z M0.9,0.6 C2,9.6 9.6,16.4 18.7,16.4 C27.2,16.4 34.5,10.4 36.2,2.2 L36,2.2 C34.3,10.3 27,16.2 18.7,16.2 C9.7,16.2 2.2,9.5 1.1,0.7 L0.9,0.7 L0.9,0.6 Z"></path>
                    </g>
                    <path d="M38.5,20.6 C37.4,20.6 36.5,19.7 36.5,18.6 C36.5,17.5 37.4,16.6 38.5,16.6 C39.6,16.6 40.5,17.5 40.5,18.6 C40.5,19.7 39.6,20.6 38.5,20.6 Z M38.5,17.5 C37.9,17.5 37.3,18 37.3,18.7 C37.3,19.3 37.8,19.9 38.5,19.9 C39.1,19.9 39.7,19.4 39.7,18.7 C39.7,18 39.2,17.5 38.5,17.5 Z"></path>
                    <path d="M2.9,20.6 C1.8,20.6 0.9,19.7 0.9,18.6 C0.9,17.5 1.8,16.6 2.9,16.6 C4,16.6 4.9,17.5 4.9,18.6 C4.9,19.7 4,20.6 2.9,20.6 Z M2.9,17.5 C2.3,17.5 1.7,18 1.7,18.7 C1.7,19.3 2.2,19.9 2.9,19.9 C3.5,19.9 4.1,19.4 4.1,18.7 C4.1,18 3.5,17.5 2.9,17.5 Z"></path>
                </g>
            </g>
        </g>
    </g>
</svg>