<svg width="116" height="86" viewBox="0 0 116 86" fill="none" xmlns="http://www.w3.org/2000/svg">
<mask id="mask0" mask-type="alpha" maskUnits="userSpaceOnUse" x="0" y="0" width="116" height="86">
<rect x="0.931641" y="0.365234" width="114.136" height="84.9568" fill="#C4C4C4"/>
</mask>
<g mask="url(#mask0)">
<mask id="path-2-inside-1" fill="white">
<path fill-rule="evenodd" clip-rule="evenodd" d="M68.4961 1.43457L113.803 42.8438L68.4961 84.2529V63.4209H-40.002V22.2695H68.4961V1.43457Z"/>
</mask>
<path d="M113.803 42.8438L114.14 43.2128L114.544 42.8438L114.14 42.4747L113.803 42.8438ZM68.4961 1.43457L68.8334 1.0655L67.9961 0.300207V1.43457H68.4961ZM68.4961 84.2529H67.9961V85.3873L68.8334 84.622L68.4961 84.2529ZM68.4961 63.4209H68.9961V62.9209H68.4961V63.4209ZM-40.002 63.4209H-40.502V63.9209H-40.002V63.4209ZM-40.002 22.2695V21.7695H-40.502V22.2695H-40.002ZM68.4961 22.2695V22.7695H68.9961V22.2695H68.4961ZM114.14 42.4747L113.385 41.7845L112.71 42.5227L113.465 43.2128L114.14 42.4747ZM111.875 40.4042L110.365 39.0239L109.69 39.7621L111.2 41.1424L111.875 40.4042ZM108.854 37.6436L107.344 36.2633L106.669 37.0014L108.18 38.3817L108.854 37.6436ZM105.834 34.883L104.324 33.5027L103.649 34.2408L105.159 35.6211L105.834 34.883ZM102.813 32.1224L101.303 30.7421L100.629 31.4802L102.139 32.8605L102.813 32.1224ZM99.793 29.3618L98.2827 27.9815L97.6081 28.7196L99.1183 30.0999L99.793 29.3618ZM96.7725 26.6012L95.2623 25.2209L94.5876 25.959L96.0979 27.3393L96.7725 26.6012ZM93.7521 23.8405L92.2419 22.4602L91.5672 23.1984L93.0774 24.5787L93.7521 23.8405ZM90.7316 21.0799L89.2214 19.6996L88.5468 20.4378L90.057 21.8181L90.7316 21.0799ZM87.7112 18.3193L86.201 16.939L85.5263 17.6772L87.0365 19.0575L87.7112 18.3193ZM84.6907 15.5587L83.1805 14.1784L82.5059 14.9165L84.0161 16.2969L84.6907 15.5587ZM81.6703 12.7981L80.1601 11.4178L79.4854 12.1559L80.9957 13.5362L81.6703 12.7981ZM78.6499 10.0375L77.1396 8.65718L76.465 9.39532L77.9752 10.7756L78.6499 10.0375ZM75.6294 7.27688L74.1192 5.89657L73.4445 6.63471L74.9548 8.01502L75.6294 7.27688ZM72.609 4.51626L71.0987 3.13596L70.4241 3.8741L71.9343 5.25441L72.609 4.51626ZM69.5885 1.75565L68.8334 1.0655L68.1588 1.80364L68.9139 2.49379L69.5885 1.75565ZM67.9961 1.43457V2.47632H68.9961V1.43457H67.9961ZM67.9961 4.55981V6.64331H68.9961V4.55981H67.9961ZM67.9961 8.72681V10.8103H68.9961V8.72681H67.9961ZM67.9961 12.8938V14.9773H68.9961V12.8938H67.9961ZM67.9961 17.0608V19.1443H68.9961V17.0608H67.9961ZM67.9961 21.2278V22.2695H68.9961V21.2278H67.9961ZM68.4961 21.7695H67.4915V22.7695H68.4961V21.7695ZM65.4823 21.7695H63.473V22.7695H65.4823V21.7695ZM61.4638 21.7695H59.4546V22.7695H61.4638V21.7695ZM57.4454 21.7695H55.4361V22.7695H57.4454V21.7695ZM53.4269 21.7695H51.4177V22.7695H53.4269V21.7695ZM49.4085 21.7695H47.3992V22.7695H49.4085V21.7695ZM45.39 21.7695H43.3808V22.7695H45.39V21.7695ZM41.3716 21.7695H39.3624V22.7695H41.3716V21.7695ZM37.3531 21.7695H35.3439V22.7695H37.3531V21.7695ZM33.3347 21.7695H31.3255V22.7695H33.3347V21.7695ZM29.3162 21.7695H27.307V22.7695H29.3162V21.7695ZM25.2978 21.7695H23.2886V22.7695H25.2978V21.7695ZM21.2793 21.7695H19.2701V22.7695H21.2793V21.7695ZM17.2609 21.7695H15.2517V22.7695H17.2609V21.7695ZM13.2424 21.7695H11.2332V22.7695H13.2424V21.7695ZM9.22399 21.7695H7.21477V22.7695H9.22399V21.7695ZM5.20555 21.7695H3.19633V22.7695H5.20555V21.7695ZM1.18711 21.7695H-0.822124V22.7695H1.18711V21.7695ZM-2.83134 21.7695H-4.84057V22.7695H-2.83134V21.7695ZM-6.8498 21.7695H-8.85902V22.7695H-6.8498V21.7695ZM-10.8682 21.7695H-12.8775V22.7695H-10.8682V21.7695ZM-14.8867 21.7695H-16.8959V22.7695H-14.8867V21.7695ZM-18.9051 21.7695H-20.9144V22.7695H-18.9051V21.7695ZM-22.9236 21.7695H-24.9328V22.7695H-22.9236V21.7695ZM-26.942 21.7695H-28.9513V22.7695H-26.942V21.7695ZM-30.9605 21.7695H-32.9697V22.7695H-30.9605V21.7695ZM-34.9789 21.7695H-36.9881V22.7695H-34.9789V21.7695ZM-38.9974 21.7695H-40.002V22.7695H-38.9974V21.7695ZM-40.502 22.2695V23.2983H-39.502V22.2695H-40.502ZM-40.502 25.3559V27.4135H-39.502V25.3559H-40.502ZM-40.502 29.471V31.5286H-39.502V29.471H-40.502ZM-40.502 33.5862V35.6437H-39.502V33.5862H-40.502ZM-40.502 37.7013V39.7589H-39.502V37.7013H-40.502ZM-40.502 41.8164V43.874H-39.502V41.8164H-40.502ZM-40.502 45.9316V47.9891H-39.502V45.9316H-40.502ZM-40.502 50.0467V52.1043H-39.502V50.0467H-40.502ZM-40.502 54.1618V56.2194H-39.502V54.1618H-40.502ZM-40.502 58.277V60.3345H-39.502V58.277H-40.502ZM-40.502 62.3921V63.4209H-39.502V62.3921H-40.502ZM-40.002 63.9209H-38.9973V62.9209H-40.002V63.9209ZM-36.9881 63.9209H-34.9789V62.9209H-36.9881V63.9209ZM-32.9697 63.9209H-30.9604V62.9209H-32.9697V63.9209ZM-28.9512 63.9209H-26.942V62.9209H-28.9512V63.9209ZM-24.9328 63.9209H-22.9236V62.9209H-24.9328V63.9209ZM-20.9143 63.9209H-18.9051V62.9209H-20.9143V63.9209ZM-16.8959 63.9209H-14.8867V62.9209H-16.8959V63.9209ZM-12.8774 63.9209H-10.8682V62.9209H-12.8774V63.9209ZM-8.85899 63.9209H-6.84977V62.9209H-8.85899V63.9209ZM-4.84054 63.9209H-2.83132V62.9209H-4.84054V63.9209ZM-0.822094 63.9209H1.18713V62.9209H-0.822094V63.9209ZM3.19635 63.9209H5.20558V62.9209H3.19635V63.9209ZM7.2148 63.9209H9.22403V62.9209H7.2148V63.9209ZM11.2332 63.9209H13.2425V62.9209H11.2332V63.9209ZM15.2517 63.9209H17.2609V62.9209H15.2517V63.9209ZM19.2701 63.9209H21.2794V62.9209H19.2701V63.9209ZM23.2886 63.9209H25.2978V62.9209H23.2886V63.9209ZM27.307 63.9209H29.3163V62.9209H27.307V63.9209ZM31.3255 63.9209H33.3347V62.9209H31.3255V63.9209ZM35.3439 63.9209H37.3532V62.9209H35.3439V63.9209ZM39.3624 63.9209H41.3716V62.9209H39.3624V63.9209ZM43.3808 63.9209H45.3901V62.9209H43.3808V63.9209ZM47.3993 63.9209H49.4085V62.9209H47.3993V63.9209ZM51.4177 63.9209H53.4269V62.9209H51.4177V63.9209ZM55.4362 63.9209H57.4454V62.9209H55.4362V63.9209ZM59.4546 63.9209H61.4638V62.9209H59.4546V63.9209ZM63.4731 63.9209H65.4823V62.9209H63.4731V63.9209ZM67.4915 63.9209H68.4961V62.9209H67.4915V63.9209ZM67.9961 63.4209V64.4625H68.9961V63.4209H67.9961ZM67.9961 66.5457V68.6289H68.9961V66.5457H67.9961ZM67.9961 70.7121V72.7953H68.9961V70.7121H67.9961ZM67.9961 74.8785V76.9617H68.9961V74.8785H67.9961ZM67.9961 79.0449V81.1281H68.9961V79.0449H67.9961ZM67.9961 83.2113V84.2529H68.9961V83.2113H67.9961ZM68.8334 84.622L69.5885 83.9318L68.9139 83.1937L68.1588 83.8839L68.8334 84.622ZM71.0987 82.5515L72.609 81.1712L71.9343 80.4331L70.4241 81.8134L71.0987 82.5515ZM74.1192 79.7909L75.6294 78.4106L74.9548 77.6725L73.4445 79.0528L74.1192 79.7909ZM77.1396 77.0303L78.6499 75.65L77.9752 74.9119L76.465 76.2922L77.1396 77.0303ZM80.1601 74.2697L81.6703 72.8894L80.9957 72.1513L79.4854 73.5316L80.1601 74.2697ZM83.1805 71.5091L84.6907 70.1288L84.0161 69.3906L82.5059 70.771L83.1805 71.5091ZM86.201 68.7485L87.7112 67.3682L87.0365 66.63L85.5263 68.0103L86.201 68.7485ZM89.2214 65.9879L90.7316 64.6076L90.057 63.8694L88.5468 65.2497L89.2214 65.9879ZM92.2419 63.2273L93.7521 61.847L93.0774 61.1088L91.5672 62.4891L92.2419 63.2273ZM95.2623 60.4666L96.7725 59.0863L96.0979 58.3482L94.5876 59.7285L95.2623 60.4666ZM98.2827 57.706L99.793 56.3257L99.1183 55.5876L97.6081 56.9679L98.2827 57.706ZM101.303 54.9454L102.813 53.5651L102.139 52.827L100.629 54.2073L101.303 54.9454ZM104.324 52.1848L105.834 50.8045L105.159 50.0664L103.649 51.4467L104.324 52.1848ZM107.344 49.4242L108.854 48.0439L108.18 47.3058L106.669 48.6861L107.344 49.4242ZM110.365 46.6636L111.875 45.2833L111.2 44.5451L109.69 45.9254L110.365 46.6636ZM113.385 43.903L114.14 43.2128L113.465 42.4747L112.71 43.1648L113.385 43.903ZM113.803 42.8438L114.477 43.5819L115.285 42.8438L114.477 42.1056L113.803 42.8438ZM68.4961 1.43457L69.1707 0.696428L67.4961 -0.834157V1.43457H68.4961ZM68.4961 84.2529H67.4961V86.5217L69.1707 84.9911L68.4961 84.2529ZM68.4961 63.4209H69.4961V62.4209H68.4961V63.4209ZM-40.002 63.4209H-41.002V64.4209H-40.002V63.4209ZM-40.002 22.2695V21.2695H-41.002V22.2695H-40.002ZM68.4961 22.2695V23.2695H69.4961V22.2695H68.4961ZM114.477 42.1056L113.722 41.4155L112.373 42.8917L113.128 43.5819L114.477 42.1056ZM112.212 40.0351L110.702 38.6548L109.353 40.1311L110.863 41.5114L112.212 40.0351ZM109.192 37.2745L107.681 35.8942L106.332 37.3705L107.842 38.7508L109.192 37.2745ZM106.171 34.5139L104.661 33.1336L103.312 34.6099L104.822 35.9902L106.171 34.5139ZM103.151 31.7533L101.641 30.373L100.291 31.8493L101.801 33.2296L103.151 31.7533ZM100.13 28.9927L98.6201 27.6124L97.2708 29.0887L98.781 30.469L100.13 28.9927ZM97.1098 26.2321L95.5996 24.8518L94.2503 26.3281L95.7605 27.7084L97.1098 26.2321ZM94.0894 23.4715L92.5792 22.0912L91.2299 23.5675L92.7401 24.9478L94.0894 23.4715ZM91.069 20.7109L89.5587 19.3306L88.2094 20.8068L89.7197 22.1872L91.069 20.7109ZM88.0485 17.9503L86.5383 16.5699L85.189 18.0462L86.6992 19.4265L88.0485 17.9503ZM85.0281 15.1896L83.5178 13.8093L82.1685 15.2856L83.6788 16.6659L85.0281 15.1896ZM82.0076 12.429L80.4974 11.0487L79.1481 12.525L80.6583 13.9053L82.0076 12.429ZM78.9872 9.66842L77.477 8.28811L76.1277 9.7644L77.6379 11.1447L78.9872 9.66842ZM75.9667 6.9078L74.4565 5.5275L73.1072 7.00378L74.6174 8.38409L75.9667 6.9078ZM72.9463 4.14719L71.4361 2.76689L70.0868 4.24317L71.597 5.62348L72.9463 4.14719ZM69.9258 1.38658L69.1707 0.696428L67.8214 2.17271L68.5766 2.86287L69.9258 1.38658ZM67.4961 1.43457V2.47632H69.4961V1.43457H67.4961ZM67.4961 4.55981V6.64331H69.4961V4.55981H67.4961ZM67.4961 8.72681V10.8103H69.4961V8.72681H67.4961ZM67.4961 12.8938V14.9773H69.4961V12.8938H67.4961ZM67.4961 17.0608V19.1443H69.4961V17.0608H67.4961ZM67.4961 21.2278V22.2695H69.4961V21.2278H67.4961ZM68.4961 21.2695H67.4915V23.2695H68.4961V21.2695ZM65.4823 21.2695H63.473V23.2695H65.4823V21.2695ZM61.4638 21.2695H59.4546V23.2695H61.4638V21.2695ZM57.4454 21.2695H55.4361V23.2695H57.4454V21.2695ZM53.4269 21.2695H51.4177V23.2695H53.4269V21.2695ZM49.4085 21.2695H47.3992V23.2695H49.4085V21.2695ZM45.39 21.2695H43.3808V23.2695H45.39V21.2695ZM41.3716 21.2695H39.3624V23.2695H41.3716V21.2695ZM37.3531 21.2695H35.3439V23.2695H37.3531V21.2695ZM33.3347 21.2695H31.3255V23.2695H33.3347V21.2695ZM29.3162 21.2695H27.307V23.2695H29.3162V21.2695ZM25.2978 21.2695H23.2886V23.2695H25.2978V21.2695ZM21.2793 21.2695H19.2701V23.2695H21.2793V21.2695ZM17.2609 21.2695H15.2517V23.2695H17.2609V21.2695ZM13.2424 21.2695H11.2332V23.2695H13.2424V21.2695ZM9.22399 21.2695H7.21477V23.2695H9.22399V21.2695ZM5.20555 21.2695H3.19633V23.2695H5.20555V21.2695ZM1.18711 21.2695H-0.822124V23.2695H1.18711V21.2695ZM-2.83134 21.2695H-4.84057V23.2695H-2.83134V21.2695ZM-6.8498 21.2695H-8.85902V23.2695H-6.8498V21.2695ZM-10.8682 21.2695H-12.8775V23.2695H-10.8682V21.2695ZM-14.8867 21.2695H-16.8959V23.2695H-14.8867V21.2695ZM-18.9051 21.2695H-20.9144V23.2695H-18.9051V21.2695ZM-22.9236 21.2695H-24.9328V23.2695H-22.9236V21.2695ZM-26.942 21.2695H-28.9513V23.2695H-26.942V21.2695ZM-30.9605 21.2695H-32.9697V23.2695H-30.9605V21.2695ZM-34.9789 21.2695H-36.9881V23.2695H-34.9789V21.2695ZM-38.9974 21.2695H-40.002V23.2695H-38.9974V21.2695ZM-41.002 22.2695V23.2983H-39.002V22.2695H-41.002ZM-41.002 25.3559V27.4135H-39.002V25.3559H-41.002ZM-41.002 29.471V31.5286H-39.002V29.471H-41.002ZM-41.002 33.5862V35.6437H-39.002V33.5862H-41.002ZM-41.002 37.7013V39.7589H-39.002V37.7013H-41.002ZM-41.002 41.8164V43.874H-39.002V41.8164H-41.002ZM-41.002 45.9316V47.9891H-39.002V45.9316H-41.002ZM-41.002 50.0467V52.1043H-39.002V50.0467H-41.002ZM-41.002 54.1618V56.2194H-39.002V54.1618H-41.002ZM-41.002 58.277V60.3345H-39.002V58.277H-41.002ZM-41.002 62.3921V63.4209H-39.002V62.3921H-41.002ZM-40.002 64.4209H-38.9973V62.4209H-40.002V64.4209ZM-36.9881 64.4209H-34.9789V62.4209H-36.9881V64.4209ZM-32.9697 64.4209H-30.9604V62.4209H-32.9697V64.4209ZM-28.9512 64.4209H-26.942V62.4209H-28.9512V64.4209ZM-24.9328 64.4209H-22.9236V62.4209H-24.9328V64.4209ZM-20.9143 64.4209H-18.9051V62.4209H-20.9143V64.4209ZM-16.8959 64.4209H-14.8867V62.4209H-16.8959V64.4209ZM-12.8774 64.4209H-10.8682V62.4209H-12.8774V64.4209ZM-8.85899 64.4209H-6.84977V62.4209H-8.85899V64.4209ZM-4.84054 64.4209H-2.83132V62.4209H-4.84054V64.4209ZM-0.822094 64.4209H1.18713V62.4209H-0.822094V64.4209ZM3.19635 64.4209H5.20558V62.4209H3.19635V64.4209ZM7.2148 64.4209H9.22403V62.4209H7.2148V64.4209ZM11.2332 64.4209H13.2425V62.4209H11.2332V64.4209ZM15.2517 64.4209H17.2609V62.4209H15.2517V64.4209ZM19.2701 64.4209H21.2794V62.4209H19.2701V64.4209ZM23.2886 64.4209H25.2978V62.4209H23.2886V64.4209ZM27.307 64.4209H29.3163V62.4209H27.307V64.4209ZM31.3255 64.4209H33.3347V62.4209H31.3255V64.4209ZM35.3439 64.4209H37.3532V62.4209H35.3439V64.4209ZM39.3624 64.4209H41.3716V62.4209H39.3624V64.4209ZM43.3808 64.4209H45.3901V62.4209H43.3808V64.4209ZM47.3993 64.4209H49.4085V62.4209H47.3993V64.4209ZM51.4177 64.4209H53.4269V62.4209H51.4177V64.4209ZM55.4362 64.4209H57.4454V62.4209H55.4362V64.4209ZM59.4546 64.4209H61.4638V62.4209H59.4546V64.4209ZM63.4731 64.4209H65.4823V62.4209H63.4731V64.4209ZM67.4915 64.4209H68.4961V62.4209H67.4915V64.4209ZM67.4961 63.4209V64.4625H69.4961V63.4209H67.4961ZM67.4961 66.5457V68.6289H69.4961V66.5457H67.4961ZM67.4961 70.7121V72.7953H69.4961V70.7121H67.4961ZM67.4961 74.8785V76.9617H69.4961V74.8785H67.4961ZM67.4961 79.0449V81.1281H69.4961V79.0449H67.4961ZM67.4961 83.2113V84.2529H69.4961V83.2113H67.4961ZM69.1707 84.9911L69.9258 84.3009L68.5766 82.8246L67.8214 83.5148L69.1707 84.9911ZM71.4361 82.9206L72.9463 81.5403L71.597 80.064L70.0868 81.4443L71.4361 82.9206ZM74.4565 80.16L75.9667 78.7797L74.6174 77.3034L73.1072 78.6837L74.4565 80.16ZM77.477 77.3994L78.9872 76.0191L77.6379 74.5428L76.1277 75.9231L77.477 77.3994ZM80.4974 74.6388L82.0076 73.2585L80.6583 71.7822L79.1481 73.1625L80.4974 74.6388ZM83.5178 71.8782L85.0281 70.4979L83.6788 69.0216L82.1686 70.4019L83.5178 71.8782ZM86.5383 69.1176L88.0485 67.7372L86.6992 66.261L85.189 67.6413L86.5383 69.1176ZM89.5587 66.3569L91.069 64.9766L89.7197 63.5004L88.2094 64.8807L89.5587 66.3569ZM92.5792 63.5963L94.0894 62.216L92.7401 60.7397L91.2299 62.12L92.5792 63.5963ZM95.5996 60.8357L97.1098 59.4554L95.7605 57.9791L94.2503 59.3594L95.5996 60.8357ZM98.6201 58.0751L100.13 56.6948L98.781 55.2185L97.2708 56.5988L98.6201 58.0751ZM101.641 55.3145L103.151 53.9342L101.801 52.4579L100.291 53.8382L101.641 55.3145ZM104.661 52.5539L106.171 51.1736L104.822 49.6973L103.312 51.0776L104.661 52.5539ZM107.681 49.7933L109.192 48.413L107.842 46.9367L106.332 48.317L107.681 49.7933ZM110.702 47.0327L112.212 45.6524L110.863 44.1761L109.353 45.5564L110.702 47.0327ZM113.722 44.272L114.477 43.5819L113.128 42.1056L112.373 42.7958L113.722 44.272Z" fill="url(#paint0_linear)" mask="url(#path-2-inside-1)"/>
<path fill-rule="evenodd" clip-rule="evenodd" d="M74.2969 14.8438L104.932 42.8438L74.2969 70.8438V56.7568H0.931641V28.9316H74.2969V14.8438Z" fill="url(#paint1_linear)"/>
</g>
<defs>
<linearGradient id="paint0_linear" x1="-34.2725" y1="3.36305e+07" x2="190.199" y2="3.36305e+07" gradientUnits="userSpaceOnUse">
<stop offset="0.110497" stop-color="#00A1E9" stop-opacity="0"/>
<stop offset="0.585635" stop-color="#00A1E9" stop-opacity="0.482353"/>
<stop offset="0.839779" stop-color="#00A1E9"/>
</linearGradient>
<linearGradient id="paint1_linear" x1="-6.66776" y1="42.8437" x2="104.932" y2="42.8437" gradientUnits="userSpaceOnUse">
<stop offset="0.232067" stop-color="#D92521" stop-opacity="0"/>
<stop offset="0.437597" stop-color="#D92521" stop-opacity="0.12"/>
<stop offset="0.690608" stop-color="#D92521" stop-opacity="0.38"/>
<stop offset="1" stop-color="#D92521"/>
</linearGradient>
</defs>
</svg>
