<svg xmlns="http://www.w3.org/2000/svg" viewBox="0 0 43 43"><defs><style>.cls-1,.cls-2{fill:none;stroke-miterlimit:10;}.cls-1{stroke:#01a1e9;}.cls-2{stroke:#d92522;}.cls-3{fill:#01a1e9;}</style></defs><title>icons_problems</title><g id="Layer_2" data-name="Layer 2"><polyline class="cls-1" points="26.46 13.54 41.67 38 1.67 38 2.21 37.07"/><line class="cls-2" x1="19.09" y1="33.88" x2="24.87" y2="22.33"/><path class="cls-2" d="M18.47,24.47a2.08,2.08,0,0,1-1.07,2.65A1.89,1.89,0,0,1,14.89,26,2.08,2.08,0,0,1,16,23.36,1.89,1.89,0,0,1,18.47,24.47Z"/><path class="cls-2" d="M29.05,30.55A2.08,2.08,0,0,1,28,33.2a1.89,1.89,0,0,1-2.52-1.1,2.08,2.08,0,0,1,1.07-2.65A1.89,1.89,0,0,1,29.05,30.55Z"/><path class="cls-3" d="M20.54,16.07l-.89-.46.62-1.2.89.46ZM22,13.27l-.89-.46.62-1.2.89.46Zm1.45-2.8L22.56,10l.62-1.2.89.46Zm1.45-2.8L24,7.21,24.63,6l.89.46Z"/><rect class="cls-3" x="18.33" y="17.43" width="1" height="1.34" transform="translate(-5.96 26.33) rotate(-62.22)"/><rect class="cls-3" x="15.84" y="16.34" width="1" height="1.14" transform="translate(-5.89 24.56) rotate(-64.96)"/><rect class="cls-3" x="13.41" y="15.14" width="1" height="1.21" transform="translate(-6.5 20.69) rotate(-62.16)"/><path class="cls-3" d="M3.53,35.75l-.88-.47.74-1.37.88.47Zm1.72-3.19-.88-.47.74-1.37.88.47ZM7,29.37l-.88-.47.74-1.37.88.47Zm1.72-3.19-.88-.47.74-1.37.88.47ZM10.41,23l-.88-.47.74-1.37.88.47Zm1.72-3.19-.88-.47L12,18l.88.47Z"/><rect class="cls-3" x="1.56" y="37.17" width="0.75" height="1" transform="translate(-32.14 21.49) rotate(-61.66)"/><polyline class="cls-1" points="21.29 6 26.22 4.05 27.95 8.97"/></g></svg>