<svg xmlns="http://www.w3.org/2000/svg" viewBox="0 0 43 43"><defs><style>.cls-1,.cls-3{fill:none;stroke-miterlimit:10;}.cls-1{stroke:#01a1e9;}.cls-2{fill:#d92522;}.cls-3{stroke:#d92522;}</style></defs><title>icons_problems</title><g id="Layer_2" data-name="Layer 2"><path class="cls-1" d="M19,34.53v3.61c0,1.85-3.91,3.36-8.74,3.36S1.51,40,1.51,38.14V34.53"/><path class="cls-1" d="M17.33,32.35c1,.55,1.66,1.23,1.66,2,0,1.85-3.91,3.36-8.74,3.36s-8.74-1.5-8.74-3.36c0-.69.54-1.33,1.47-1.87"/><path class="cls-1" d="M19,26.87v3.61c0,1.85-3.91,3.36-8.74,3.36s-8.74-1.5-8.74-3.36V26.87"/><path class="cls-1" d="M15.13,23.74C18,24.29,19,25.35,19,26.66,19,28.51,15.08,30,10.25,30s-8.74-1.5-8.74-3.36c0-1.27,1.27-2.23,4-2.79"/><path class="cls-1" d="M41.5,34.53v3.61c0,1.85-3.91,3.36-8.74,3.36S24,40,24,38.14V34.53"/><ellipse class="cls-1" cx="32.76" cy="34.32" rx="8.74" ry="3.36"/><ellipse class="cls-1" cx="10.25" cy="16.58" rx="8.75" ry="8.7"/><path class="cls-2" d="M31.11,24.54,30,23.66l.64-.77,1.06.88Zm-2.46-2.05-1.07-.89.64-.78,1.07.89Zm-2.49-2.07-1.07-.89.64-.78,1.07.89Z"/><rect class="cls-2" x="23.18" y="17.09" width="1" height="1.29" transform="translate(-5.17 24.27) rotate(-49.59)"/><rect class="cls-2" x="28.46" y="10.67" width="1" height="1.22" transform="translate(1.36 25.58) rotate(-48.67)"/><path class="cls-2" d="M26.93,10l-1.14-1,.67-.74,1.14,1ZM24.27,7.56l-1.14-1,.67-.74,1.14,1ZM21.6,5.15l-1.14-1,.67-.74,1.14,1Z"/><rect class="cls-2" x="18.75" y="1.63" width="1" height="1.41" transform="translate(4.7 15.15) rotate(-48.29)"/><rect class="cls-2" x="26.59" y="12.78" width="1.38" height="1" transform="translate(-0.43 25.63) rotate(-49.98)"/><rect class="cls-2" x="24.71" y="15.12" width="1.38" height="1" transform="translate(-2.89 25.04) rotate(-50)"/><polyline class="cls-3" points="33.44 20.31 33.45 25.89 27.6 25.71"/><path class="cls-2" d="M12.81,18.39a2.45,2.45,0,0,1-.58,1.6,2.2,2.2,0,0,1-.66.53,2.34,2.34,0,0,1-.84.25V22H9.8V20.76A2.34,2.34,0,0,1,9,20.51a2.36,2.36,0,0,1-.66-.5,2.5,2.5,0,0,1-.46-.7,2,2,0,0,1-.17-.82v-.17h.91A1.55,1.55,0,0,0,10.3,20a1.54,1.54,0,0,0,1.18-.45,1.87,1.87,0,0,0,.29-1.88,1.37,1.37,0,0,0-.38-.48,2,2,0,0,0-.55-.32,5.41,5.41,0,0,0-.66-.21,7.19,7.19,0,0,1-.88-.28A2.4,2.4,0,0,1,8.6,16a1.86,1.86,0,0,1-.47-.63A2.17,2.17,0,0,1,8,14.43v0a2.29,2.29,0,0,1,.13-.78A2.05,2.05,0,0,1,8.46,13,2.14,2.14,0,0,1,9,12.48a2.39,2.39,0,0,1,.76-.26v-1h.91v1a2.24,2.24,0,0,1,1.45.75,2.45,2.45,0,0,1,.55,1.53h-.91a1.42,1.42,0,0,0-.42-1.09A1.57,1.57,0,0,0,10.27,13a1.38,1.38,0,0,0-1,.38,1.4,1.4,0,0,0-.38,1A1.36,1.36,0,0,0,9,15a1.21,1.21,0,0,0,.35.41,1.81,1.81,0,0,0,.51.26l.61.18a6,6,0,0,1,.92.33,2.76,2.76,0,0,1,.74.49,2.16,2.16,0,0,1,.5.71A2.41,2.41,0,0,1,12.81,18.39Z"/></g></svg>