<svg xmlns="http://www.w3.org/2000/svg" viewBox="0 0 43 43"><defs><style>.cls-1,.cls-2,.cls-4{fill:none;stroke-miterlimit:10;}.cls-1{stroke:#d92521;}.cls-2{stroke:#d92522;}.cls-3{fill:#01a1e9;}.cls-4{stroke:#01a1e9;}</style></defs><title>icons_problems</title><g id="Layer_2" data-name="Layer 2"><line class="cls-1" x1="11.15" y1="14.85" x2="24.46" y2="28.23"/><line class="cls-2" x1="24.46" y1="14.85" x2="11.15" y2="28.23"/><path class="cls-3" d="M34.23,19h-1v-1.5h1Zm0-3.5h-1V14h1Zm0-3.5h-1v-1.5h1Zm0-3.5h-1V7h1Z"/><path class="cls-4" d="M33.73,21.93m0-14.9V5.28C31,6.46,21.62,9.41,17.8,1.54,13.6,9.41,4.58,6.46,1.88,5.28V21.93c0,7.33,1.83,13.55,15.93,19.61l1.67-.72"/><path class="cls-3" d="M21.5,40.51l-.41-.91L22.44,39l.44.9Zm3.17-1.58-.49-.87c.42-.24.83-.48,1.27-.76l.53.85C25.53,38.43,25.1,38.69,24.68,38.93Z"/><path class="cls-2" d="M32.57,25.67l.94-3.47a3.5,3.5,0,0,1,4.29-2.47h0a3.48,3.48,0,0,1,1.65,1"/><line class="cls-2" x1="38.9" y1="27.56" x2="39.65" y2="24.83"/><polygon class="cls-4" points="38.43 40 25.97 36.12 29.42 24.95 41.88 28.84 38.43 40"/><path class="cls-4" d="M35.58,32.21a1.42,1.42,0,1,0-2.7.07l-.55,2,2.2.66.55-2A1.42,1.42,0,0,0,35.58,32.21Z"/></g></svg>