<svg xmlns="http://www.w3.org/2000/svg" viewBox="0 0 43 43"><defs><style>.cls-1,.cls-4{fill:none;stroke-miterlimit:10;}.cls-1{stroke:#01a1e9;}.cls-2{fill:#01a1e9;}.cls-3{fill:#d92522;}.cls-4{stroke:#d92521;}</style></defs><title>icons_problems</title><g id="Layer_2" data-name="Layer 2"><polygon class="cls-1" points="1.5 25.9 1.5 3 25.83 3 25.83 19.51 7.85 19.51 1.5 25.9"/><path class="cls-2" d="M39.33,17.71h-1.5v-1h1.5Zm-3.5,0h-1.5v-1h1.5Zm-3.5,0h-1.5v-1h1.5Zm-3.5,0h-1.5v-1h1.5Z"/><polyline class="cls-1" points="41.5 16.72 41.5 40 36.59 35.06 9.67 35.06 9.67 33.54"/><path class="cls-2" d="M10.17,32h-1v-1.5h1Zm0-3.5h-1V27h1Zm0-3.5h-1v-1.5h1Zm0-3.5h-1V20h1Z"/><circle class="cls-3" cx="17.88" cy="8.3" r="1.05"/><circle class="cls-3" cx="9.46" cy="8.3" r="1.05"/><path class="cls-4" d="M10.38,16a3.28,3.28,0,0,1,6.56,0"/><path class="cls-3" d="M14.9,25.61l.14.29.32,0-.23.23.05.32-.29-.15-.29.15.05-.32-.23-.23.32,0,.14-.29m0-2.26L14.09,25l-1.81.26,1.31,1.27-.31,1.8,1.62-.85,1.62.85-.31-1.8,1.31-1.27L15.7,25l-.81-1.64Z"/><path class="cls-2" d="M20.12,25.61l.14.29.32,0-.23.23.05.32-.29-.15-.29.15.05-.32-.23-.23.32,0,.14-.29m0-2.26L19.32,25l-1.81.26,1.31,1.27-.31,1.8,1.62-.85,1.62.85-.31-1.8,1.31-1.27L20.93,25l-.81-1.64Z"/><path class="cls-2" d="M25.35,25.61l.14.29.32,0-.23.23.05.32-.29-.15-.29.15.05-.32-.23-.23.32,0,.14-.29m0-2.26L24.55,25l-1.81.26L24,26.52l-.31,1.8,1.62-.85,1.62.85-.31-1.8L28,25.25,26.16,25l-.81-1.64Z"/><path class="cls-2" d="M35.81,25.61l.14.29.32,0-.23.23.05.32-.29-.15-.29.15.05-.32-.23-.23.32,0,.14-.29m0-2.26L35,25l-1.81.26,1.31,1.27-.31,1.8,1.62-.85,1.62.85-.31-1.8,1.31-1.27L36.62,25l-.81-1.64Z"/><path class="cls-2" d="M30.45,25.61l.14.29.32,0-.23.23.05.32-.29-.15-.29.15.05-.32L30,25.94l.32,0,.14-.29m0-2.26L29.64,25l-1.81.26,1.31,1.27-.31,1.8,1.62-.85,1.62.85-.31-1.8,1.31-1.27L31.26,25l-.81-1.64Z"/></g></svg>