<svg xmlns="http://www.w3.org/2000/svg" viewBox="0 0 43 43"><defs><style>.cls-1,.cls-3{fill:none;stroke-miterlimit:10;}.cls-1{stroke:#01a1e9;}.cls-2{fill:#01a1e9;}.cls-3{stroke:#d92522;}</style></defs><title>icons_problems</title><g id="Layer_2" data-name="Layer 2"><line class="cls-1" x1="21.26" y1="11.57" x2="21.26" y2="41.21"/><line class="cls-1" x1="18.3" y1="9.6" x2="7.94" y2="15.08"/><ellipse class="cls-1" cx="21.27" cy="8.14" rx="2.96" ry="2.97" transform="translate(9.59 27.69) rotate(-80.09)"/><path class="cls-2" d="M12.72,27.75l-.52-1.41.94-.35.52,1.41ZM11.5,24.47,11,23.07l.94-.35.52,1.41Zm-1.22-3.28-.52-1.41.94-.35.52,1.41ZM9.05,17.91l-.52-1.41.94-.35L10,17.56Z"/><rect class="cls-2" x="4.23" y="26.85" width="0.75" height="1" transform="translate(-22.96 24.27) rotate(-74.08)"/><path class="cls-2" d="M5.71,25.29l-1-.27.39-1.38,1,.27Zm.92-3.22-1-.27.39-1.38,1,.27Zm.92-3.22-1-.27L7,17.19l1,.27Z"/><rect class="cls-2" x="7.71" y="14.63" width="0.75" height="1" transform="translate(-8.68 18.76) rotate(-74.08)"/><path class="cls-3" d="M1.5,28A7.23,7.23,0,0,0,16,28Z"/><line class="cls-1" x1="24.24" y1="6.6" x2="34.51" y2="1.57"/><rect class="cls-2" x="33.78" y="1.94" width="1" height="0.75" transform="translate(1.26 11.79) rotate(-19.87)"/><path class="cls-2" d="M37.5,12.71,37,11.3l.94-.34.51,1.41ZM36.31,9.42,35.8,8l.94-.34.51,1.41ZM35.12,6.13l-.51-1.41.94-.34.51,1.41Z"/><rect class="cls-2" x="38.28" y="14.4" width="1" height="0.75" transform="translate(-2.71 14.03) rotate(-19.83)"/><path class="cls-2" d="M30.26,15.57l-.94-.34.5-1.41.94.34Zm1.18-3.3-.94-.34.5-1.41.94.34ZM32.61,9l-.94-.34.5-1.41.94.34Zm1.18-3.3-.94-.34.5-1.41.94.34Z"/><path class="cls-1" d="M41.5,15.42a7.23,7.23,0,0,1-14.46,0Z"/><line class="cls-1" x1="21.27" y1="4.97" x2="21.27" y2="1.21"/><path class="cls-1" d="M12.52,41.21H30.67"/></g></svg>